<?xml version="1.0" standalone="no"?>
<!DOCTYPE svg PUBLIC "-//W3C//DTD SVG 1.1//EN" "http://www.w3.org/Graphics/SVG/1.1/DTD/svg11.dtd" >
<!--
2013-9-30: Created.
-->
<svg>
<metadata>
Created by iconfont
</metadata>
<defs>

<font id="yizs-ygc-app-web-iconfont" horiz-adv-x="1024" >
  <font-face
    font-family="yizs-ygc-app-web-iconfont"
    font-weight="500"
    font-stretch="normal"
    units-per-em="1024"
    ascent="896"
    descent="-128"
  />
    <missing-glyph />
    
    <glyph glyph-name="x" unicode="x" horiz-adv-x="1001"
d="M281 543q-27 -1 -53 -1h-83q-18 0 -36.5 -6t-32.5 -18.5t-23 -32t-9 -45.5v-76h912v41q0 16 -0.5 30t-0.5 18q0 13 -5 29t-17 29.5t-31.5 22.5t-49.5 9h-133v-97h-438v97zM955 310v-52q0 -23 0.5 -52t0.5 -58t-10.5 -47.5t-26 -30t-33 -16t-31.5 -4.5q-14 -1 -29.5 -0.5
t-29.5 0.5h-32l-45 128h-439l-44 -128h-29h-34q-20 0 -45 1q-25 0 -41 9.5t-25.5 23t-13.5 29.5t-4 30v167h911zM163 247q-12 0 -21 -8.5t-9 -21.5t9 -21.5t21 -8.5q13 0 22 8.5t9 21.5t-9 21.5t-22 8.5zM316 123q-8 -26 -14 -48q-5 -19 -10.5 -37t-7.5 -25t-3 -15t1 -14.5
t9.5 -10.5t21.5 -4h37h67h81h80h64h36q23 0 34 12t2 38q-5 13 -9.5 30.5t-9.5 34.5q-5 19 -11 39h-368zM336 498v228q0 11 2.5 23t10 21.5t20.5 15.5t34 6h188q31 0 51.5 -14.5t20.5 -52.5v-227h-327z" />
    

    
    <glyph glyph-name="xiangji" unicode="&#58880;" d="M304 204c0-114.88 93.12-208 208-208s208 93.12 208 208-93.12 208-208 208-208-93.12-208-208zM960 556l-224 0c-16 64-32 128-96 128l-256 0c-64 0-80-64-96-128l-224 0c-35.2 0-64-28.8-64-64l0-576c0-35.2 28.8-64 64-64l896 0c35.2 0 64 28.8 64 64l0 576c0 35.2-28.8 64-64 64zM512-80c-156.864 0-284 127.136-284 284s127.136 284 284 284c156.864 0 284-127.136 284-284 0-156.864-127.136-284-284-284zM960 364l-128 0 0 64 128 0 0-64z"  horiz-adv-x="1024" />

    
    <glyph glyph-name="fasong" unicode="&#59126;" d="M153.792 419.296l128.32 0c0 0 29.888 3.264 42.816 36.864 0 0 9.664 27.456 37.632 61.568 0 0 14.528 18.304-12.032 20.16L90.048 537.888c0 0-47.296 1.088-55.488-54.08l0-546.624c0 0 2.88-49.6 57.728-55.104l839.36 0c0 0 52.992 2.112 57.728 58.24L989.376 331.616c0 0-2.496 29.568-21.888 10.752l-62.72-50.048c0 0-34.624-22.592-34.368-55.68l0-235.136L154.176 1.504 153.792 419.296zM348.288 145.12c0 0 6.464-16.64 14.912 0 0 0 95.232 287.488 327.424 214.976l0-89.344c0 0 3.904-52.416 49.6-18.304l228.224 197.184c0 0 48.512 26.368-2.88 62.4l-230.848 198.272c0 0-34.752 24.768-43.008-15.872l-0.256-96.32C691.584 598.176 258.688 577.504 348.288 145.12z"  horiz-adv-x="1024" />

    
    <glyph glyph-name="set" unicode="&#58911;" d="M945.5050026666668 506.3945077333332l-92.07949973333332 18.4468c-4.621713066666667 13.320990933333333-10.061013333333333 26.219560533333333-16.101768533333335 38.7240896l52.12908053333333 78.20024106666666c15.9074688 23.814928000000002 12.729905066666667 55.5445152-7.508919466666667 75.78360106666668l-57.78560319999998 57.78541866666666c-11.5990368 11.609477333333333-26.980369066666665 17.589950933333334-42.50142186666667 17.589950933333334-11.529176533333333 0-23.15222826666667-3.3062336-33.28637653333333-10.081339733333333l-78.19252906666665-52.1149376c-12.5377888 6.064521599999997-25.437978666666666 11.45448-38.749690666666666 16.0858272l-18.43336533333333 92.0768192c-5.6074016 28.098077866666664-30.27691413333333 48.30223573333333-58.89245653333333 48.30223573333333l-81.70848106666668 0c-28.640648533333334 0-53.306886399999996-20.204157866666666-58.9131968-48.30223573333333l-18.43664-92.0768192c-13.332452266666662-4.6313471999999996-26.23155093333333-10.059509333333333-38.725676799999995-16.0858272l-78.19252906666665 52.1149376c-10.1789024 6.775106133333334-21.7572 10.081339733333333-33.285284266666665 10.081339733333333-15.521052799999998 0-30.899109333333335-5.980474666666666-42.52543573333333-17.589950933333334l-57.760497066666666-57.78541866666666c-20.263930666666667-20.239086933333333-23.41747946666667-51.96867306666666-7.532933333333332-75.78360106666668l52.12798933333333-78.20024106666666c-6.064770133333333-12.528542933333334-11.454949333333333-25.427112533333332-16.100677333333334-38.74810346666666l-92.07731733333333-18.421694933333335c-28.0883136-5.607172266666667-48.3042144-30.274582399999996-48.3042144-58.89004373333333l0-81.71386559999999c0-28.625285333333327 20.2159008-53.29378666666666 48.3042144-58.90095893333333l92.07731733333333-18.445707733333332c4.645728-13.306801066666665 10.059921066666668-26.219560533333333 16.100677333333334-38.71099093333333l-52.12798933333333-78.20351573333333c-15.884546133333329-23.810561066666665-12.732088533333332-55.55215573333333 7.532933333333332-75.78360106666668l57.760497066666666-57.78323626666667c11.6263264-11.612752 27.004382933333332-17.6030496 42.52543573333333-17.6030496 11.528085333333333 0 23.1303968 3.3204234666666665 33.285284266666665 10.0944384l78.19252906666665 52.119304533333334c12.53888-6.067796266666666 25.437978666666666-11.458845866666667 38.75078293333333-16.101109333333333l18.41262506666666-92.06699520000001c5.6063104-28.096986666666666 30.27254826666667-48.301144533333314 58.9131968-48.301144533333314l81.70848106666668 0c28.615542399999995 0 53.28505493333333 20.204157866666666 58.89245653333333 48.301144533333314l18.4573792 92.06699520000001c13.307346133333334 4.6422624 26.21190293333333 10.060600533333334 38.725676799999995 16.101109333333333l78.19252906666665-52.119304533333334c10.179994666666666-6.7740138666666665 21.7582912-10.0944384 33.28637653333333-10.0944384 15.521052799999998 0 30.902383999999998 5.9902976 42.50142186666667 17.6030496l57.78560319999998 57.78323626666667c20.238824533333332 20.231445333333333 23.41638826666667 51.97194773333333 7.508919466666667 75.78360106666668l-52.12908053333333 78.20351573333333c6.088785066666665 12.515444266666666 11.480055466666666 25.424929066666667 16.101768533333335 38.74592l92.07949973333332 18.410779733333335c28.109053866666667 5.607172266666667 48.324954666666656 30.2756736 48.324954666666656 58.90095893333333L993.8310495999999 447.50555519999995C993.8299573333334 476.11992533333336 973.6140565333334 500.78733546666666 945.5050026666668 506.3945077333332zM841.6539978666667 347.3689045333334c-20.865385600000003-4.161991466666667-37.976858666666665-19.061329066666666-44.9345344-39.15415146666667-3.896909866666667-11.083361066666667-8.3712608-21.853453866666666-13.450342399999997-32.299364266666664-9.2925472-19.1431936-7.725050666666665-41.78800426666667 4.065011199999999-59.5034816l52.1323552-78.20351573333333-57.78778666666666-57.76686293333333-78.19143786666666 52.111664000000005c-10.0369984 6.691058133333333-21.634944 10.087889066666666-33.308208 10.087889066666666-8.931236266666666 0-17.859198933333335-1.9854869333333334-26.18570453333333-5.983749333333334-10.396125866666667-5.040669866666667-21.1568352-9.584695466666666-32.27230613333333-13.450882133333332-20.09691946666667-6.991227733333333-34.99686826666667-24.091083733333335-39.1590304-44.9468832l-18.4573792-92.09319146666667-81.70848106666668 0-18.43336533333333 92.09319146666667c-4.1632533333333335 20.8547072-19.062109866666667 37.954563199999996-39.1590304 44.9468832-11.070716799999998 3.8661877333333328-21.852166399999998 8.354545066666667-32.296321066666664 13.4312352-8.302491733333333 4.019000533333333-17.255559466666668 6.004487466666666-26.186796799999996 6.004487466666666-11.6721728 0-23.270117333333328-3.3968309333333333-33.30711573333333-10.087889066666666l-78.216544-52.111664000000005-57.784512 57.76686293333333 52.12798933333333 78.20351573333333c11.791153066666666 17.714385066666665 13.332452266666662 40.32426773333333 4.090117333333334 59.47837653333333-5.029960533333334 10.4251712-9.5774464 21.179981866666665-13.4514336 32.299364266666664-6.980598400000001 20.0928224-24.068056533333333 34.99216-44.9345344 39.15415146666667l-92.05548586666667 18.445707733333332-0.04912106666666667 81.71386559999999 92.10460586666666 18.410779733333335c20.866477866666667 4.177272533333333 37.953934933333336 19.072244266666665 44.9345344 39.16724906666666 3.872894933333333 11.081178666666666 8.350520533333333 21.851271466666667 13.427418666666666 32.2851744 9.316561066666663 19.155199999999997 7.7501568 41.800011733333335-4.066103466666666 59.515488l-52.12798933333333 78.18932586666666 57.784512 57.782144 78.216544-52.12585386666666c10.0359072-6.680142933333332 21.634944-10.0846144 33.30711573333333-10.0846144 8.932328533333333 0 17.860290133333333 1.9996767999999998 26.16169066666667 5.991389866666666 10.421232 5.045035733333333 21.180850133333333 9.5814208 32.29741226666667 13.455249066666665 20.09691946666667 6.980312533333334 34.99577706666666 24.091083733333335 39.1590304 44.93269333333333l18.4573792 92.0768192 81.70848106666668 0.0207392 18.411533866666666-92.09755733333333c4.1632533333333335-20.841609599999998 19.059927466666664-37.9523808 39.156846933333334-44.93269333333333 11.094730666666667-3.872735999999999 21.851075199999997-8.350178133333333 32.296321066666664-13.430142933333334 8.301400533333332-4.015726933333333 17.258834133333334-6.015402666666666 26.210810666666664-6.015402666666666 11.6721728 0 23.270117333333328 3.405562666666667 33.308208 10.0846144l78.19143786666666 52.12585386666666 57.78778666666666-57.782144-52.1323552-78.18932586666666c-11.790061866666667-17.715477333333336-13.332452266666662-40.33518293333333-4.089026133333333-59.48056 5.029960533333334-10.409889066666667 9.5774464-21.179981866666665 13.475448533333333-32.294997333333335 6.957675733333334-20.086273066666667 24.069147733333335-34.99543466666667 44.9345344-39.15851733333333l92.05548586666667-18.445707733333332 0.050212266666666665-81.71386559999999L841.6539978666667 347.3689045333334zM513.2591274666667 628.4315488c-122.57145386666666 0-221.84986666666666-99.24596586666667-221.84986666666666-221.78074346666665 0-122.52822826666667 99.2784128-221.79711573333333 221.84986666666666-221.79711573333333 122.52451626666667 0 221.77891413333333 99.26888746666667 221.77891413333333 221.79711573333333C735.0380416 529.1855829333333 635.7836437333333 628.4315488 513.2591274666667 628.4315488zM513.2591274666667 240.30869973333336c-91.88629226666667 0-166.37293653333333 74.50978986666665-166.37293653333333 166.34319786666669 0 91.83559146666667 74.48664533333334 166.3344661333333 166.37293653333333 166.3344661333333 91.81861439999999 0 166.33036586666668-74.4977824 166.33036586666668-166.3344661333333C679.5894933333333 314.8184885333334 605.0777418666667 240.30869973333336 513.2591274666667 240.30869973333336z"  horiz-adv-x="1024" />

    
    <glyph glyph-name="icon1" unicode="&#58912;" d="M570.009958 125.876012c9.894234 20.780755 23.370933 39.529878 39.632176 55.447401L159.143512 181.323413l0 55.447401 585.183776 0c0.407145 0 0.818382 0.012276 1.229618 0.012276 0.414306 0 0.820428-0.012276 1.234733-0.012276l30.19419 0 0-2.529822c18.130222-2.949243 35.414442-8.40171 51.489502-15.999361L828.475333 680.136216 107.659125 680.136216l0-720.602406 462.126801 0c-11.892108 25.152959-18.549642 53.260276-18.549642 82.928655 0 9.497319 0.694601 18.833007 2.009127 27.965123L159.143512 70.427588l0 55.447401L570.009958 125.874989 570.009958 125.876012zM468.066206 569.453171l308.918601 0 0-55.447401-308.918601 0L468.066206 569.453171 468.066206 569.453171zM159.143512 458.55837l617.841295 0 0-55.446378L159.143512 403.111992 159.143512 458.55837 159.143512 458.55837zM159.143512 347.664591l617.841295 0 0-55.447401L159.143512 292.217191 159.143512 347.664591 159.143512 347.664591zM779.749914-1.261618M870.291564-31.498773 849.025918-52.76442 805.826621-9.589674 827.116819 11.700523ZM933.259892-80.774553c9.397067-9.39809 11.409263-22.638482 4.493938-29.567105l-8.358745-8.345447c-6.93783-6.925554-20.167992-4.914382-29.567105 4.493938l-60.810869 60.829283c-9.420595 9.412412-11.430745 22.643596-4.513375 29.559944l8.357722 8.358745c6.917371 6.917371 20.169015 4.902106 29.565059-4.494961L933.259892-80.774553zM736.420699 210.445522c-71.4396 0-129.339077-57.899477-129.339077-129.339077 0-71.441646 57.899477-129.339077 129.339077-129.339077s129.339077 57.897431 129.339077 129.339077C865.758753 152.546046 807.8603 210.445522 736.420699 210.445522zM736.420699-24.303153c-58.23399 0-105.422897 47.175608-105.422897 105.409598 0 58.232967 47.188907 105.409598 105.422897 105.409598s105.42392-47.176631 105.42392-105.409598C841.843596 22.873479 794.653666-24.303153 736.420699-24.303153zM762.937287 17.08036c-51.5918 0-93.425423 41.834645-93.425423 93.437698 0 1.37795 0.127872 2.716004 0.206641 4.080655-6.823257-11.018486-10.812867-23.979604-10.812867-37.869586 0-39.904288 32.334258-72.238545 72.237522-72.238545 15.394781 0 29.631552 4.85198 41.371237 13.065463C769.372835 17.235852 766.180124 17.08036 762.937287 17.08036z"  horiz-adv-x="1024" />

    
    <glyph glyph-name="iconfontjian" unicode="&#58924;" d="M517.582 715.833c-230.813 0-417.924-187.111-417.924-417.924s187.111-417.924 417.924-417.924 417.924 187.111 417.924 417.924S748.395 715.833 517.582 715.833zM648.997 246.738l-79.991 0L466.159 246.738l-79.991 0c-28.283 0-51.423 23.097-51.423 51.327 0 28.23 23.14 51.327 51.423 51.327l79.991 0 102.847 0 79.991 0c28.283 0 51.424-23.097 51.424-51.327C700.42 269.835 677.28 246.738 648.997 246.738z"  horiz-adv-x="1024" />

    
    <glyph glyph-name="search" unicode="&#58947;" d="M1001.526404-179.699618C999.922771-174.822379 999.922771-174.822379 998.661741-172.531443 997.556333-170.547938 996.293839-168.724943 994.702325-166.653549 992.500075-163.787264 989.423708-160.169135 985.358477-155.619563 978.223881-147.634933 967.82403-136.546074 954.04227-122.18551 932.495573-99.733901 910.909628-77.684252 858.479859-24.391998 806.561909 28.380015 784.782022 50.629598 763.425645 72.886537 750.035742 86.841067 739.986204 97.558483 733.331893 105.006633 730.0273 108.705455 727.65239 111.498419 726.365602 113.171678 727.222236 111.561131 727.222236 111.561131 728.57702 107.58121 730.685899 100.086517 730.685899 100.086517 721.610157 82.825982 803.853596 162.08394 851.33145 272.012949 851.33145 389.600226 851.33145 622.88518 665.530044 812 436.332393 812 207.134741 812 21.333333 622.88518 21.333333 389.600226 21.333333 156.315273 207.134741-32.799548 436.332393-32.799548 441.356706-32.799548 446.556279-32.56416 452.347883-32.11767 456.487002-31.798575 460.079727-31.454155 466.651669-30.776804 479.958906-29.405269 484.804847-29.014569 490.397372-29.014558 499.896397-29.014541 514.964663-25.646929 537.39015-19.429666 540.021178-18.700239 542.719546-17.938705 545.476431-17.148403 553.976567-14.711712 562.667765-12.108471 571.097184-9.505798 576.160226-7.942528 580.026436-6.721914 582.233225-6.013231 595.480279-1.759108 602.830912 12.619906 598.651326 26.103196 594.471738 39.586485 580.344653 47.068205 567.097598 42.81408 565.058735 42.159326 561.367413 40.993926 556.494825 39.489461 548.364858 36.979245 539.986116 34.469596 531.839533 32.134255 529.217662 31.382658 526.657771 30.660205 524.170112 29.970524 506.936476 25.192655 493.480702 22.185421 490.397278 22.185414 482.458716 22.185399 476.720548 21.722765 461.583853 20.162671 455.416051 19.526976 452.140828 19.212992 448.548723 18.936068 443.933724 18.580286 439.960704 18.400425 436.332393 18.400425 234.916275 18.400425 71.63625 184.592237 71.63625 389.600226 71.63625 594.608215 234.916275 760.800027 436.332393 760.800027 637.74851 760.800027 801.028533 594.608215 801.028533 389.600226 801.028533 286.224557 759.336083 189.690923 687.025254 120.005013 677.769918 102.436971 677.769918 102.436971 679.976768 94.37293 681.566101 89.694818 681.566101 89.694818 682.808947 87.449702 683.910231 85.488343 685.170219 83.673308 686.754421 81.613308 688.964348 78.739657 692.047349 75.113956 696.115554 70.560425 703.261474 62.562018 713.66454 51.467582 727.438434 37.112866 749.001325 14.640706 770.84669-7.675765 822.916311-60.601946 875.194278-113.7399 896.716879-135.724843 918.057933-157.962174 931.455439-171.922347 941.502012-182.634524 948.144469-190.068378 951.440527-193.757135 953.805218-196.538259 955.077419-198.194061 954.139053-196.441707 954.139053-196.441707 952.75811-192.249822 950.686453-184.172693 950.686453-184.172693 960.850534-166.849743 950.24269-175.977788 948.913429-192.130236 957.881542-202.927251 966.849655-213.724265 982.719104-215.077231 993.326948-205.949188 1003.683753-188.332838 1003.683753-188.332838 1001.526404-179.699618Z"  horiz-adv-x="1024" />

    
    <glyph glyph-name="xiajiantou" unicode="&#58898;" d="M112.512 548.192 64 499.68l448-447.872 448 447.872-48.512 48.512L512 148.704 112.512 548.192zM112.512 548.192"  horiz-adv-x="1024" />

    
    <glyph glyph-name="add" unicode="&#59065;" d="M70.13093705702698 411.6168160293928C54.878591345145935 411.61681602939325 42.51411973309649 399.25234571188247 42.51411973309649 384.0000000000001 42.51411973309638 368.7476542881192 54.87859134514571 356.38318397060766 70.13093705702727 356.383183970608L953.869062942973 356.3831839706072C969.1214099493925 356.3831839706072 981.4858802669035 368.7476542881177 981.4858802669037 383.9999999999999 981.4858802669037 399.25234571188054 969.1214099493927 411.61681602939245 953.8690629429727 411.61681602939206L70.13093705702698 411.6168160293928ZM539.6168160293928 825.869062942973C539.6168160293932 841.1214086548541 527.2523457118825 853.4858802669035 512.0000000000001 853.4858802669035 496.74765428811946 853.4858802669035 484.3831839706077 841.1214086548543 484.38318397060794 825.8690629429727L484.3831839706072-57.86906294297296C484.3831839706072-73.1214099493925 496.74765428811764-85.48588026690345 511.9999999999999-85.48588026690368 527.2523457118807-85.48588026690345 539.6168160293926-73.12140994939273 539.616816029392-57.86906294297273L539.6168160293928 825.869062942973Z"  horiz-adv-x="1024" />

    
    <glyph glyph-name="time" unicode="&#58958;" d="M954.27392 570.8390400000001c-24.18432 57.16416-58.78464 108.50304-102.85632 152.55744-44.07552 44.0928-95.40672 78.67968-152.56704 102.85056-59.1936 25.056-122.06016 37.74336-186.8448 37.74336s-127.65312-12.68736-186.85248-37.74336c-57.15648-24.17088-108.48768-58.75776-152.5632-102.85056-44.07552-44.0544-78.67968-95.39328-102.85632-152.55744C44.69504 511.64928 32 448.7904 32 383.99231999999995c0-64.77888 12.69504-127.63776 37.73376-186.82752 24.17664-57.17568 58.7808-108.50304 102.85632-152.55744 44.07552-44.07552 95.40672-78.67968 152.56128-102.86016 59.19936-25.04448 122.06592-37.7376 186.85248-37.7376 64.77888 0 127.64544 12.6912 186.8448 37.7376 57.16032 24.18048 108.49152 58.78464 152.56704 102.86016 44.07168 44.0544 78.672 95.38176 102.85632 152.55744 25.0368 59.18976 37.728 122.04864 37.728 186.82752C992 448.7904 979.3088 511.64928 954.27392 570.8390400000001L954.27392 570.8390400000001zM811.48352 84.5376c-79.99872-80.00448-186.34944-124.04928-299.47968-124.04928-113.13216 0-219.48864 44.0448-299.48544 124.04928-79.99872 79.98144-124.04544 186.33216-124.04544 299.45472 0 113.11872 44.04672 219.49824 124.04544 299.472 79.99872 80.00448 186.35328 124.05696 299.48544 124.05696 113.13024 0 219.48096-44.05056 299.47968-124.05696 79.99488-79.97376 124.04544-186.35328 124.04544-299.472C935.52896 270.86976000000004 891.4784 164.51904000000002 811.48352 84.5376L811.48352 84.5376zM540.23744 700.22016c0 15.60192-12.64512 28.2336-28.2336 28.2336-15.59616 0-28.24128-12.63168-28.24128-28.2336l0-302.65728c0-2.34816 0.29184-4.61568 0.8256-6.79296-0.53376-2.17344-0.8256-4.42944-0.8256-6.7776 0-15.58464 12.64512-28.21632 28.24128-28.21632l316.23552 0c15.59232 0 28.22976 12.63168 28.22976 28.21632 0 15.61344-12.63936 28.2624-28.22976 28.2624l-288 0L540.23936 700.22016 540.23744 700.22016z"  horiz-adv-x="1024" />

    
    <glyph glyph-name="close" unicode="&#58881;" d="M836.8 608.8 803.2 642.4 512 351.2 220.8 642.4 187.2 608.8 478.4 316 187.2 24.8 220.8-8.8 512 282.4 803.2-8.8 836.8 24.8 545.6 316Z"  horiz-adv-x="1024" />

    
    <glyph glyph-name="sms" unicode="&#58974;" d="M451.4 285.2c30.8-26.6 80.6-26.6 111.4 0l424.4 370c-16.2 13-36.6 20.8-58.8 20.8h-832.8c-25 0-47.6-9.8-64.6-25.8l420.4-365zM964-100.4l-198 197.4c-16.4 16.4-16.4 43 0 59.4s43.2 16.4 59.6 0l197.6-196.8c0.2 2.8 0.4 5.8 0.4 8.6v594.4l-2.6-2.2c-2-1.8-4.6-2.6-6.8-4l-395.8-343.4c-61.6-53.4-161.2-53.4-222.8 0l-395.2 343v-587.8c0-2.4 0.2-4.8 0.2-7.2l196.2 195.2c16.6 16.6 43.6 16.6 60.2 0s16.6-43.4 0-60l-198.4-197.4c-5.2-5-11.2-8.6-17.6-10.6 15.4-11 34.2-17.4 54.4-17.4h833c20.4 0 39.2 6.6 54.8 17.8-7 2-13.6 5.6-19.2 11zM910 525z"  horiz-adv-x="1024" />

    
    <glyph glyph-name="dianhua" unicode="&#58882;" d="M844.52352 395.26272c-88.53504 147.43552-197.86752 238.09024-331.2128 238.09024-131.98336 0-246.29248-91.50464-331.2128-238.09024C97.15712 248.67712 29.15328 131.32672 29.15328 131.32672-34.78528-18.67904 46.31552-141.42592 209.408-141.42592l607.80544 0c163.06176 0 244.18304 122.74688 180.25472 272.76288C997.46816 131.32672 933.05856 247.8272 844.52352 395.26272L844.52352 395.26272zM513.30048 127.77344c-114.87232 0-207.99488 93.10208-207.99488 207.98464 0 114.88256 93.12256 207.98464 207.99488 207.98464 114.8928 0 208.00512-93.10208 208.00512-207.98464C721.3056 220.86528 628.19328 127.77344 513.30048 127.77344L513.30048 127.77344zM52.11136 404.31488c38.20544-23.7056 83.61984 8.4992 91.5968 29.39904 52.35712 136.99072 181.1456 236.94336 336.67072 245.59616l0-0.08192c21.248 1.66912 42.61888 1.66912 63.86688 0.02048 155.21792-8.93952 283.77088-108.73856 336.04608-245.54496 7.97696-20.89984 53.39136-53.10464 91.5968-29.39904 45.17888 28.06784 79.72864 129.96608 21.0944 213.49376C952.61696 675.33696 793.3952 739.73632 548.47488 740.5248L548.47488 740.58624c-23.9616 1.11616-47.95392 1.11616-71.92576 0l0-0.0512C231.00416 739.93088 71.45472 675.3984 31.00672 617.78816-27.62752 534.28096 6.93248 432.36224 52.11136 404.31488L52.11136 404.31488zM52.11136 404.31488"  horiz-adv-x="1024" />

    
    <glyph glyph-name="pulldown2" unicode="&#58904;" d="M510.607792 807.317351c-280.050254 0-507.075851-227.024573-507.075851-507.075851 0-280.050254 227.025597-507.075851 507.075851-507.075851 280.049231 0 507.074827 227.025597 507.074827 507.075851C1017.682619 580.292777 790.655999 807.317351 510.607792 807.317351zM824.44864 255.821825 539.476283 255.821825l-50.860365 0 0 50.860365L488.615918 685.081379l50.860365 0 0-378.399189 284.971333 0L824.447617 255.821825z"  horiz-adv-x="1024" />

    
    <glyph glyph-name="tupian" unicode="&#59040;" d="M975.36 714.4 48.64 714.4C21.76 714.4 0 692.641 0 665.76l0-731.52C0-92.64 21.76-114.4 48.64-114.4l926.72 0c26.88 0 48.64 21.761 48.64 48.641L1024 665.76C1024 692.641 1002.24 714.4 975.36 714.4zM926.08 147.36 746.24 327.2c-21.76 21.76-57.601 21.76-79.36 0L455.68 116l-90.239 90.88c-19.841 19.84-52.48 19.84-72.96 0l-192-192c-1.92 5.12-3.2 10.88-3.2 17.28L97.281 568.48c0 26.88 21.76 48.64 48.64 48.64L877.44 617.12c26.88 0 48.64-21.76 48.64-48.64L926.08 147.36zM316.8 519.2c-53.76 0-97.28-43.52-97.28-97.28 0-53.76 43.52-97.28 97.28-97.28s97.28 43.521 97.28 97.28C414.08 475.681 370.56 519.2 316.8 519.2z"  horiz-adv-x="1024" />

    
    <glyph glyph-name="guanbi" unicode="&#58987;" d="M512.174601875 803.0813025c-231.5370975 0-419.23575843749995-187.69866000000002-419.23575843749995-419.23575843749995 0-231.540935625 187.69866000000002-419.23575843749995 419.23575843749995-419.23575843749995s419.23575843749995 187.69482281249998 419.23575843749995 419.23575843749995C931.410359375 615.3826425 743.711699375 803.0813025 512.174601875 803.0813025zM672.7486128125 272.67803625c6.822894375-6.82001625 6.822894375-17.8803571875 0-24.7032515625l-24.7032515625-24.7032515625c-6.822894375-6.82001625-17.884194375-6.82001625-24.7032515625 0L512.174601875 334.43808281250006 401.007093125 223.2715340625c-6.82001625-6.82001625-17.8803571875-6.82001625-24.7032515625 0l-24.7032515625 24.7032515625c-6.822894375 6.822894375-6.822894375 17.884194375 0 24.7032515625l111.16750875 111.16750875L351.599631875 495.0130528125c-6.822894375 6.82001625-6.822894375 17.8803571875 0 24.7032515625l24.7032515625 24.7032515625c6.822894375 6.82001625 17.884194375 6.82001625 24.7032515625 0l111.16750875-111.16750875 111.16750875 111.16750875c6.82001625 6.82001625 17.8803571875 6.82001625 24.7032515625 0l24.7032515625-24.7032515625c6.822894375-6.822894375 6.822894375-17.884194375 0-24.7032515625L561.5811040625 383.845545 672.7486128125 272.67803625z"  horiz-adv-x="1024" />

    
    <glyph glyph-name="gengduo" unicode="&#58883;" d="M256 812 814.405818 300 256-212 209.454545-118.909091 674.909091 300 209.454545 718.909091 256 812Z"  horiz-adv-x="1024" />

    
    <glyph glyph-name="menu" unicode="&#58994;" d="M46.545455 556l930.909091 0 0-46.545455-930.909091 0 0 46.545455ZM46.545455 323.272727l930.909091 0 0-46.545455-930.909091 0 0 46.545455ZM46.545455 90.545455l930.909091 0 0-46.545455-930.909091 0 0 46.545455Z"  horiz-adv-x="1024" />

    
    <glyph glyph-name="filetexto" unicode="&#60092;" d="M911.989715 678.854368q16.017142-16.017142 27.426612-43.443754t11.409471-50.318692l0-658.238697q0-22.818942-16.017142-38.836083t-38.836083-16.017142l-767.945147 0q-22.818942 0-38.836083 16.017142t-16.017142 38.836083l0 914.220413q0 22.818942 16.017142 38.836083t38.836083 16.017142l511.963431 0q22.818942 0 50.318692-11.409471t43.443754-27.426612zM658.275266 818.327834l0-214.805228 214.805228 0q-5.704735 16.602243-12.579673 23.404043l-178.821513 178.821513q-6.874938 6.874938-23.404043 12.579673zM877.688165-54.789229l0 585.101064-237.697307 0q-22.818942 0-38.836083 16.017142t-16.017142 38.836083l0 237.697307-438.825798 0 0-877.651596 731.37633 0zM292.587101 438.889794q0 7.972002 5.119634 13.164774t13.164774 5.119634l402.256982 0q7.972002 0 13.164774-5.119634t5.119634-13.164774l0-36.568817q0-7.972002-5.119634-13.164774t-13.164774-5.119634l-402.256982 0q-7.972002 0-13.164774 5.119634t-5.119634 13.164774l0 36.568817zM713.128491 310.898936q7.972002 0 13.164774-5.119634t5.119634-13.164774l0-36.568817q0-7.972002-5.119634-13.164774t-13.164774-5.119634l-402.256982 0q-7.972002 0-13.164774 5.119634t-5.119634 13.164774l0 36.568817q0 7.972002 5.119634 13.164774t13.164774 5.119634l402.256982 0zM713.128491 164.62367q7.972002 0 13.164774-5.119634t5.119634-13.164774l0-36.568817q0-7.972002-5.119634-13.164774t-13.164774-5.119634l-402.256982 0q-7.972002 0-13.164774 5.119634t-5.119634 13.164774l0 36.568817q0 7.972002 5.119634 13.164774t13.164774 5.119634l402.256982 0z"  horiz-adv-x="1024" />

    
    <glyph glyph-name="shaixuan" unicode="&#59057;" d="M908.86475 606.011532l0.376577-0.337691c0 0-170.055071-177.226401-244.306168-253.856685-5.253654-5.421476-15.559371-15.375176-18.399045-22.459524-2.971681-7.402597-2.605338-23.26282-2.605338-31.277354 0-146.560984 1.885953-416.20319 1.885953-416.20319s0.51063-30.90794-29.806863-30.92636c-23.486924-0.013303-24.64019 23.789823-24.64019 30.92636 0 200.723557-0.083911 314.258357-0.12075 424.470481-0.013303 29.288047-2.186805 35.017538 0.895393 45.660946 3.595898 12.400425 25.302269 28.629038 34.570353 37.291324 74.040297 69.187779 245.289566 254.800173 245.289566 254.800173l-0.12075 0.294712c5.705955 5.02955 9.525957 12.30628 9.525957 20.699438 0 15.246239-11.971659 27.633361-26.751271 27.633361L169.71431 692.727523c-14.782681 0-26.776853-12.387122-26.776853-27.633361 0-8.369621 3.846608-15.669888 9.547447-20.699438l-0.095167-0.294712c0 0 164.704203-176.23584 240.249783-249.114684 7.460925-7.205099 34.398438-28.821419 39.017642-42.837644 2.755764-8.377808 1.509377-50.490951 1.509377-50.490951l0-206.941166c0 0-3.514033-11.642155-26.729781-11.55722-21.434172 0.078795-25.978674 11.642155-25.978674 11.642155s-2.971681 107.752096 0.008186 207.639061c0.207731 6.865361-1.193175 21.221324-3.254114 27.03268-2.671852 7.526417-12.453636 17.600867-17.990746 22.727631-78.124312 72.246441-244.074901 253.466806-244.074901 253.466806l0.361227 0.342808c-15.253402 14.881942-24.843828 35.755342-24.843828 59.078537 0 45.071522 35.378765 81.583087 79.051427 81.583087l684.950004 0c43.672662 0 79.043241-36.511565 79.043241-81.583087C933.708578 641.766874 924.116105 620.898591 908.86475 606.011532L908.86475 606.011532 908.86475 606.011532 908.86475 606.011532zM908.86475 606.011532"  horiz-adv-x="1024" />

    
    <glyph glyph-name="huigou010" unicode="&#58918;" d="M248.127705 73.358007 779.210319 73.358007 779.210319 327.869608l69.282946 0 0-254.511601c0-38.315654-30.967292-69.39551-69.282946-69.39551L248.127705 3.962497c-38.315654 0-69.27783 31.079856-69.27783 69.39551L178.849876 327.869608l69.27783 0L248.127705 73.358007 248.127705 73.358007zM368.885 163.639197l-2.456958 3.464915c-4.845355 6.830569-10.771321 13.650905-17.613146 20.269649l-3.25616 3.148713 3.635807 2.703575c25.88146 19.24839 43.231617 40.015366 51.570539 61.726853l0.057305 0.144286c8.165983 18.97619 12.307304 51.971675 12.307304 98.06855l0 82.295308 32.253588 0 0-72.405053c0-37.372166-2.238994-68.050885-6.66991-91.452875l3.650133 3.400446 2.625804-2.728134c23.232121-24.15412 43.810808-46.340421 61.157895-65.941851l2.615571-2.955308-27.564799-23.185049-2.454912 3.145643c-14.782681 18.944468-31.141254 38.451754-48.687886 58.0583-9.417487-24.518417-28.884864-49.707099-57.967226-74.972529L368.885 163.639197zM617.177969 173.334c-19.464307 0-40.517809 0.457418-62.571081 1.364067l-3.176342 0.130983-0.470721 3.14155c-1.352811 9.002025-3.169179 18.305925-5.393847 27.646664l-1.27197 5.330402 5.447059-0.617054c21.852704-2.474354 42.147936-3.841491 60.32083-4.065596 21.895683 0.209778 32.717146 10.328229 33.969673 31.842219 1.555425 37.849026 2.689249 100.516298 3.371794 186.242751L539.911188 424.349987c-8.110725-18.87079-16.660448-36.43891-25.435299-52.244898l-2.00875-3.619434-3.463891 2.26867c-5.115508 3.349281-11.241019 6.677073-18.260899 9.912767l0-105.153922 2.288113 1.440815c7.261381 4.563946 12.737092 10.880815 16.274662 18.778692 12.329816 29.826306 24.205285 66.38085 35.253922 108.546182l0.954745 3.634784 33.638121-7.965415-1.287319-3.971451c-12.901845-39.776935-25.863041-77.061097-38.556131-110.924345 16.089443 0.973164 33.112142 2.112104 50.752918 3.397377-5.039783 18.356067-10.461259 37.20639-16.130376 56.109925l-1.113357 3.722788 30.858822 8.93858 1.139963-3.566222c10.395768-32.555463 20.62269-67.263963 30.397311-103.158475l0.992607-3.638877-32.980135-9.6815-1.019213 3.807722c-1.543146 5.77554-3.027963 11.730159-4.419659 17.740036-22.652929-1.538029-43.270503-3.40454-61.32674-5.557576-9.809413-1.113357-19.85828-2.922563-29.894867-5.374404l-3.037173-0.741897-12.787234 26.797319 0-2.975774-32.252565 0L458.488761 457.433476l-58.467623 0 0-188.605565-32.255635 0L367.765503 490.024755l122.975822 0 0-88.346117c18.917862 31.508621 33.44267 66.842361 43.24185 105.234763l0.929162 3.631714 34.733059-7.91118-1.342578-4.025687c-4.804423-14.411221-9.855462-28.396747-15.042601-41.659819l128.523165 0-0.048095-3.894703c-1.36509-110.204961-2.743484-184.480618-4.095271-220.767056C675.470607 193.144184 655.12728 173.334 617.177969 173.334zM145.945465 443.629075 68.58147 443.629075l-5.436826 0 0 69.27783 90.551342 0 0-0.054235 349.080443 292.709575 366.529861-292.656363 89.456405 0 0-69.27783L848.493266 443.628052l-1.801019 0-343.915817 268.955568-309.295322-255.181867C193.481108 457.402777 177.06523 443.629075 145.945465 443.629075z"  horiz-adv-x="1024" />

    
    <glyph glyph-name="iconfontxiajiantou" unicode="&#58960;" d="M129.381 181.243l383.243 406.352 383.244-406.352L129.381 181.243zM65.291 181.253c0 20.555 9.878 38.779 25.126 50.253L466.918 630.71c23.746 25.157 67.68 25.157 91.425 0l383.25-406.322c17.212-18.285 21.905-44.976 11.966-68.048-9.91-23.009-32.613-37.919-57.678-37.919L129.38 118.421c-0.399 0.062-0.859 0.062-1.258 0C93.424 118.421 65.29 146.523 65.291 181.253zM512.63 496.027 275.017 244.085l475.228 0L512.63 496.027z"  horiz-adv-x="1024" />

    
    <glyph glyph-name="link" unicode="&#58973;" d="M546.9184 230.5024c-48.2816 0-96.5632 18.3808-133.3248 55.1424-9.984 9.984-9.984 26.2144 0 36.1984s26.2144 9.984 36.1984 0c53.5552-53.5552 140.6464-53.5552 194.2016 0l186.1632 186.1632c53.5552 53.5552 53.5552 140.6464 0 194.2016s-140.6464 53.5552-194.2016 0l-157.0816-157.0816c-9.984-9.984-26.2144-9.984-36.1984 0s-9.984 26.2144 0 36.1984l157.0816 157.0816c73.5232 73.5232 193.1264 73.5232 266.5984 0s73.5232-193.1264 0-266.5984l-186.1632-186.1632c-36.7616-36.7616-85.0432-55.1424-133.3248-55.1424zM239.7184-76.6976c-48.2816 0-96.5632 18.3808-133.3248 55.1424-73.5232 73.5232-73.5232 193.1264 0 266.5984l186.1632 186.1632c73.5232 73.5232 193.1264 73.5232 266.5984 0 9.984-9.984 9.984-26.2144 0-36.1984s-26.2144-9.984-36.1984 0c-53.5552 53.5552-140.6464 53.5552-194.2016 0l-186.1632-186.1632c-53.5552-53.5552-53.5552-140.6464 0-194.2016s140.6464-53.5552 194.2016 0l157.0816 157.0816c9.984 9.984 26.2144 9.984 36.1984 0s9.984-26.2144 0-36.1984l-157.0816-157.0816c-36.7616-36.7616-85.0432-55.1424-133.3248-55.1424z"  horiz-adv-x="1024" />

    
    <glyph glyph-name="chuizi" unicode="&#58901;" d="M44.56448 175.02208c5.38624-5.38624 12.83072-8.72448 21.05344-8.72448 0.04096 0 0.07168 0.01024 0.1024 0.01024l294.17472-0.01024c0 0 0.01024 0 0.01024 0l24.86272 0 0 0 0 0 0.01024 0c16.45568 0 29.77792 13.33248 29.77792 29.77792 0 0.03072-0.01024 0.06144-0.01024 0.1024l0.01024 223.60064 278.64064-0.01024c0.03072 0 0.06144 0.01024 0.09216 0.01024l265.10336-0.01024c8.22272 0 15.6672 3.33824 21.05344 8.72448 5.38624 5.38624 8.72448 12.83072 8.72448 21.05344 0 16.45568-13.32224 29.77792-29.77792 29.77792L664.10496 479.3344c-0.03072 0-0.06144-0.01024-0.09216-0.01024L414.54592 479.3344l0 11.01824c0 0.02048-0.01024 0.0512-0.01024 0.07168l0.01024 217.62048 0 0 0 0 0 0.01024c0 16.45568-13.32224 29.77792-29.77792 29.77792-0.04096 0-0.07168-0.01024-0.1024-0.01024L90.50112 737.83296c0 0-0.01024 0-0.01024 0l-24.87296 0c-16.45568 0-29.77792-13.33248-29.77792-29.77792 0-16.44544 13.32224-29.77792 29.77792-29.77792l289.3824-0.01024-0.01024-264.48896c0-0.03072 0.01024-0.0512 0.01024-0.08192l-0.01024-187.84256L95.39584 225.86368l0.01024 264.48896c0 0.01024 0 0.02048 0 0.02048l0 65.67936c0 16.45568-13.33248 29.77792-29.77792 29.77792-16.44544 0-29.77792-13.32224-29.77792-29.77792L35.84 261.7856c0-0.01024 0-0.02048 0-0.02048l0-65.66912 0 0 0 0 0-0.01024C35.84 187.8528 39.17824 180.40832 44.56448 175.02208zM958.38208 96.60416l-294.27712 0.01024c-0.03072 0-0.06144-0.01024-0.09216-0.01024l-265.10336 0.01024c-0.01024 0-0.02048 0-0.02048 0l-68.07552 0c-0.03072 0-0.06144-0.01024-0.09216-0.01024L65.61792 96.6144c-16.45568 0-29.77792-13.32224-29.77792-29.77792s13.32224-29.77792 29.77792-29.77792l294.27712-0.01024c0.03072 0 0.06144 0.01024 0.09216 0.01024l265.10336-0.01024c0.01024 0 0.01024 0 0.02048 0l68.07552 0c0.03072 0 0.06144 0.01024 0.09216 0.01024l265.10336-0.01024c8.22272 0 15.6672 3.33824 21.05344 8.72448 5.38624 5.38624 8.72448 12.83072 8.72448 21.05344C988.16 83.28192 974.83776 96.60416 958.38208 96.60416z"  horiz-adv-x="1024" />

    
    <glyph glyph-name="yuan" unicode="&#59100;" d="M511.246335 703.852772c-176.221514 0-319.078129-142.844336-319.078129-319.079152 0-176.211281 142.857639-319.078129 319.078129-319.078129 176.210257 0 319.079152 142.865825 319.079152 319.078129C830.324464 561.008436 687.456592 703.852772 511.246335 703.852772L511.246335 703.852772zM511.246335 114.723114c-149.137669 0-270.053576 120.899534-270.053576 270.050506 0 149.155065 120.915907 270.053576 270.053576 270.053576 149.154042 0 270.052552-120.899534 270.052552-270.053576C781.298887 235.622648 660.399353 114.723114 511.246335 114.723114L511.246335 114.723114zM511.246335 114.723114"  horiz-adv-x="1024" />

    
    <glyph glyph-name="quan" unicode="&#58895;" d="M512 498.14c63.037 0 114.14-51.103 114.14-114.14s-51.103-114.14-114.14-114.14-114.14 51.103-114.14 114.14 51.103 114.14 114.14 114.14z"  horiz-adv-x="1024" />

    
    <glyph glyph-name="tianjiahaoyou" unicode="&#58945;" d="M596.088652 286.07062c66.349127 47.626717 97.692996 133.107577 97.692996 133.107577 70.77288 71.850421 21.3871 118.642121 8.809643 128.648009 1.112334 4.678556 1.734504 20.815071-0.25992 66.74003C703.958428 808.323125 572.884161 822.165388 572.884161 822.165388c-33.196053 7.461949-53.648874 8.278547-59.738569 8.343015-1.690502 0.097214-23.887037 1.190105-63.192228-7.531534 0 0-127.002532-24.425296-129.443118-207.598128-1.998517-45.924959-1.376347-62.059428-0.264013-66.74003-12.577456-9.998725-61.963237-56.796564 8.813736-128.648009 0 0 33.784454-83.036181 92.807732-133.107577 0 0 14.247492-41.927925-1.219781-72.045873 0 0-158.753677-31.750121-318.318836-188.063213l-0.601704-89.160669 418.028768-0.215918 0 0.225127 402.385487 0.201591 0.132006 88.137363C762.706437 182.268486 597.308433 214.019631 597.308433 214.019631 581.840136 244.143719 596.088652 286.07062 596.088652 286.07062L596.088652 286.07062zM596.088652 286.07062M703.11727 318.179922l256.3249 0 0-59.859319-256.3249 0 0 59.859319ZM801.349549 416.412201l59.860343 0 0-256.325923-59.860343 0 0 256.325923Z"  horiz-adv-x="1024" />

    
    <glyph glyph-name="icon" unicode="&#59015;" d="M602.065272 276.576385c0 0 18.46249 11.025101 41.561581-2.692319 23.274076-13.803377 101.765755-74.880431 82.165348-109.005646-19.515473-34.170241-76.04086-67.376527-167.305447-27.145244C467.13314 178.090327 418.833087 246.823757 381.819079 294.86389c-36.835953 47.951105-119.699196 175.289282-61.072961 301.861002 0 0 29.487591 50.4009 62.47489 53.748135 0 0 15.57779 3.498684 36.485983-21.983687 21.092387-25.487487 54.513568-84.243683 46.727231-109.180632 0 0-17.414625-22.400173-26.248827-37.015032-8.969279-14.743796-34.564213-33.381271-21.088294-75.754335 13.386892-42.418089 73.410963-148.909471 135.451972-148.426471C554.549072 258.113895 580.803016 259.601782 602.065272 276.576385M514.64934-60.48021c-245.618047 0-445.385836 199.808722-445.385836 445.425745 0 245.62214 199.767789 445.430862 445.385836 445.430862s445.470771-199.808722 445.470771-445.430862C960.120111 139.328511 760.267387-60.48021 514.64934-60.48021M514.64934 767.986441c-211.232912 0-382.995881-171.807994-382.995881-383.040906 0-211.250308 171.762969-383.063419 382.995881-383.063419 211.228819 0 383.085932 171.812087 383.085932 383.063419C897.735271 596.178447 725.878159 767.986441 514.64934 767.986441"  horiz-adv-x="1024" />

    
    <glyph glyph-name="address" unicode="&#58897;" d="M508.847901 896c-231.239226 0-413.068908-184.101753-413.068908-410.380824 0-102.627207 100.675146-249.92781 165.925185-323.370105l0-0.096003 3.392106-11.584362-3.104097 0.032001c63.329979-74.018313 183.173724-244.80765 185.573799-248.103753 15.616488-19.360605 37.249164-30.432951 60.705897-30.464952 23.424732 0 45.44142 11.072346 61.473921 30.816963 95.970999 122.499828 118.691709 157.988937 133.860183 181.44567 11.264352 17.440545 16.800525 26.176818 51.585612 66.146067 17.696553 20.352636 172.997406 202.726335 172.997406 335.210475C928.189006 711.898247 740.023126 896 508.847901 896zM508.879902 389.74418c-71.458233 0-129.636051 56.865777-129.636051 126.787962s58.145817 126.755961 129.636051 126.755961c71.394231 0 129.540048-56.865777 129.540048-126.755961S580.274134 389.74418 508.879902 389.74418z"  horiz-adv-x="1024" />

    
    <glyph glyph-name="triangle-copy" unicode="&#58885;" d="M857.308 85.462h-692.46l343.068 593.65z"  horiz-adv-x="1024" />

    
    <glyph glyph-name="fujian" unicode="&#58908;" d="M849.066667 303.388444l-246.215111-246.215111c-100.636444-100.636444-264.476444-100.636444-365.056 0-100.636444 100.636444-100.636444 264.419556 0 365.056l310.385778 310.385778c71.623111 71.623111 188.188444 71.623111 259.811556 0s71.623111-188.188444 0-259.811556l-284.785778-284.785778c-44.202667-44.202667-116.053333-44.202667-160.256 0-44.202667 44.202667-44.202667 116.053333 0 160.256l236.999111 236.999111 56.32-56.32-236.999111-236.999111c-13.141333-13.141333-13.141333-34.474667 0-47.559111 13.141333-13.141333 34.474667-13.141333 47.616 0l284.785778 284.785778c40.561778 40.561778 40.561778 106.552889 0 147.171556s-106.552889 40.561778-147.171556 0L294.115556 365.909333c-69.632-69.632-69.632-182.840889 0-252.416s182.784-69.575111 252.416 0l246.215111 246.215111L849.066667 303.388444z"  horiz-adv-x="1024" />

    
    <glyph glyph-name="jia-copy" unicode="&#58884;" d="M512 810.78c-235.113 0-425.709-190.596-425.709-425.709s190.596-425.709 425.709-425.709 425.709 190.596 425.709 425.709c0 235.112-190.597 425.709-425.709 425.709zM755.262 354.663h-212.854v-212.854h-60.816v212.854h-212.854v60.816h212.854v212.854h60.816v-212.854h212.854l-0-60.816z"  horiz-adv-x="1024" />

    
    <glyph glyph-name="select" unicode="&#59011;" d="M511.99944394 854.55513724c-259.88557979 0-470.55624937-210.66955745-470.55624937-470.55513724 0-259.88557979 210.67066957-470.55513724 470.55624937-470.55513724 259.88446875 0 470.55513724 210.67066957 470.55513724 470.55513724C982.55458227 643.8855797900001 771.88391269 854.55513724 511.99944394 854.55513724zM783.5110929 462.85521687L500.05107759 182.95604021999998c-6.68601716-6.61711205-15.92263463-10.70696324-26.14615103-10.70696323s-19.4612449 4.08985119-26.14837309 10.70696323l-160.21324413 158.19276847c-6.6871282 6.61711205-10.82254615 15.7381466-10.82254615 25.8249638 0 20.15029605 16.56611902 36.50969972 36.96869608 36.50969973 10.20128908 0 19.43790545-4.08985119 26.14726207-10.70696325l134.0670931-132.39003198 257.3105301 254.09644017c6.6871282 6.59377369 15.94708511 10.6836238 26.14837309 10.6836238 20.40146602 0 36.96869609-16.33606532 36.96869609-36.50969973C794.33252694 478.57113616 790.19711007 469.44898948 783.5110929 462.85521687z"  horiz-adv-x="1024" />

    
    <glyph glyph-name="touxiang" unicode="&#58969;" d="M959.99402 384.008538c0 246.972752-200.971142 447.87554-448.003254 447.87554-247.031113 0-447.987864-200.902588-447.987864-447.87554 0-128.319399 54.342756-244.12968 141.132512-325.858068l-0.313987-0.393933 11.317327-9.951453c1.53456-1.346287 3.192036-2.49231 4.748181-3.80482 7.957405-6.832168 16.098085-13.442086 24.541561-19.70444 2.34481-1.734024 4.741985-3.379309 7.125769-5.079556 9.033875-6.423845 18.226043-12.628838 27.71421-18.39173 1.497785-0.907585 3.050732-1.734024 4.561907-2.622222 10.047588-5.92878 20.312228-11.525985 30.841689-16.673096 0.584204-0.299797 1.159214-0.613984 1.749414-0.907585 11.321324-5.480684 22.953837-10.410742 34.768227-14.936873 0.872608-0.333574 1.722832-0.681338 2.573055-1.014912 11.575152-4.360244 23.416124-8.184651 35.418986-11.577151 1.124438-0.314187 2.230288-0.647561 3.356724-0.959549 11.781812-3.233008 23.748698-5.984942 35.875277-8.252205 1.385261-0.262022 2.750135-0.499262 4.138394-0.741697 11.985474-2.12376 24.116049-3.840596 36.410314-4.987618 1.367873-0.127913 2.733547-0.199465 4.08503-0.313987 12.517313-1.052686 25.150348-1.718835 37.942875-1.718835 12.798722 0 25.430758 0.662951 37.95007 1.718835 1.348486 0.111524 2.693774 0.186274 4.045257 0.313987 12.313851 1.147022 24.464813 2.863658 36.488061 4.987618 1.330098 0.239438 2.659997 0.465484 4.006284 0.721311 12.207323 2.289648 24.224376 5.039783 36.06135 8.290979 1.035298 0.276213 2.069597 0.587202 3.104095 0.880803 12.112188 3.419082 24.043299 7.297652 35.727777 11.691873 0.705921 0.259824 1.407845 0.553425 2.10957 0.829638 11.999664 4.583293 23.782475 9.5873 35.246903 15.16192 0.356159 0.165688 0.686535 0.349763 1.037497 0.533039 10.893814 5.318994 21.492828 11.096277 31.870991 17.246107 1.270738 0.753089 2.584248 1.461009 3.856985 2.215898 9.7346 5.888807 19.133627 12.222713 28.36277 18.81944 2.162734 1.530562 4.345054 3.027347 6.462818 4.595684 8.644939 6.408455 17.006669 13.18646 25.151347 20.203702 1.422036 1.215376 2.956595 2.264065 4.359244 3.505024l11.28355 9.954651-0.299797 0.347764C905.637074 139.839085 959.99402 255.667553 959.99402 384.008538L959.99402 384.008538zM109.118514 385.070418c0 222.078231 180.734662 402.75873 402.871253 402.75873 222.135592 0 402.871253-180.66411 402.871253-402.75873 0-115.131941-48.652414-219.067472-126.397103-292.538659-28.509071 27.543326-72.310973 44.101699-124.064484 58.397207-23.407929 10.325-28.62879 12.856084-34.533986 17.562093l-6.273547 6.25416c-9.449193 9.177977-14.656663 14.228953-16.494017 27.902282l0 47.737834c16.601344 19.308509 27.116615 45.01528 37.421029 78.9079 13.960934 5.331185 27.849118 22.941446 32.252533 42.553948 4.688821 21.16545 2.461531 38.919812-5.599204 48.794517 22.769562 86.037666 19.271734 159.539632-9.735599 197.976572-15.261253 20.23548-37.456804 30.955212-64.197074 30.970602-2.46353 2.016433-4.081033 4.222137-6.118052 6.989661-10.441521 14.276121-21.569576 24.402455-69.918195 24.402455l-5.185884-0.02958c-58.081221 0-102.117364-17.490541-130.875067-52.023528-36.884992-44.212224-47.334707-114.741205-31.162872-209.727605-6.948689-9.92587-9.076646-26.565189-5.343577-46.29841 3.506023-18.433702 15.149728-35.136577 28.217469-42.003522 12.709583-36.973932 25.956402-62.662315 41.162492-79.888036 0.872608-28.006612 1.162212-45.440991 0.055362-51.427932-1.618503-8.685911-6.292933-16.669098-14.744603-25.105379-7.916633-7.910437-18.489064-13.707107-40.428989-22.442184-54.090127-14.906294-98.571369-31.657136-127.349457-59.447894C157.771927 166.013339 109.118514 269.938478 109.118514 385.070418L109.118514 385.070418z"  horiz-adv-x="1024" />

    
    <glyph glyph-name="more" unicode="&#58894;" d="M863.976448 273.41004799999996C803.309568 273.41004799999996 754.128896 322.69414400000005 754.128896 383.489024 754.128896 444.28288 803.309568 493.566976 863.976448 493.566976 924.644352 493.566976 973.824 444.28288 973.824 383.489024 973.824 322.69414400000005 924.644352 273.41004799999996 863.976448 273.41004799999996ZM511.488 273.41004799999996C450.82112 273.41004799999996 401.640448 322.69414400000005 401.640448 383.489024 401.640448 444.28288 450.82112 493.566976 511.488 493.566976 572.15488 493.566976 621.335552 444.28288 621.335552 383.489024 621.335552 322.69414400000005 572.15488 273.41004799999996 511.488 273.41004799999996ZM158.999552 273.41004799999996C98.332672 273.41004799999996 49.152 322.69414400000005 49.152 383.489024 49.152 444.28288 98.332672 493.566976 158.999552 493.566976 219.666432 493.566976 268.847104 444.28288 268.847104 383.489024 268.847104 322.69414400000005 219.666432 273.41004799999996 158.999552 273.41004799999996Z"  horiz-adv-x="1024" />

    
    <glyph glyph-name="js" unicode="&#58903;" d="M173.320441 831.040523l0-17.833157 0-855.984379 0-17.833157 17.833157 0 641.98854 0 17.833157 0 0 17.833157L850.975295 563.545212l0 7.245008-5.015224 5.572926L596.296895 826.024276l-5.572926 5.015224-7.245008 0L191.153598 831.039499 173.320441 831.039499zM208.986755 795.374208l356.660072 0L565.646827 563.545212l0-17.833157 17.833157 0 231.828996 0 0-570.655911L208.986755-24.943856 208.986755 795.374208zM601.312118 769.739365l188.360995-188.360995L601.312118 581.378369 601.312118 769.739365zM271.647887 391.193843l18.910699 0 0-61.911048 68.664869 0 0 61.911048 18.685571 0 0-147.684574-18.685571 0 0 69.564355-68.664869 0 0-69.564355-18.910699 0L271.647887 391.193843zM448.14467 375.434927l-44.800345 0 0 15.758915 108.287285 0 0-15.758915-44.801369 0 0-131.925658-18.685571 0L448.14467 375.434927zM536.842805 391.193843l22.287609 0 28.591175-79.244832 10.580986-30.167067 0.900509 0 10.355859 30.167067 28.367071 79.244832 22.062482 0 0-147.684574-17.785062 0 0 81.272002c0 13.057387 1.575892 30.617321 2.476401 43.674709l-0.900509 0-11.706623-32.869618-28.366048-77.218686-10.806113 0-28.367071 77.218686-11.706623 32.869618-0.900509 0c0.900509-13.057387 2.251274-30.617321 2.251274-43.674709l0-81.272002-17.334807 0L536.842805 391.193843zM699.381691 391.193843l18.910699 0 0-131.700531L782.679839 259.493312l0-15.984043-83.298148 0L699.381691 391.193843z"  horiz-adv-x="1024" />

    
    <glyph glyph-name="baojia" unicode="&#58984;" d="M942.638459 130.850419c-28.207435 48.247864-87.564311 85.562724-130.684388 119.67873-77.945233 66.481134-155.911956 132.983757-233.855142 199.465914 8.250918 8.252964 16.506952 16.507976 24.759917 24.76094 92.046393-32.238238 180.6248 66.813708 148.56871 156.820652C736.906841 672.340057 602.767771 805.11506 562.966277 821.413258c-76.91988 31.497365-145.441487-23.663956-162.323992-77.035514-9.286504-29.919427 0-68.780503 0-68.780503-30.009478-30.010501-60.025095-60.025095-90.041736-90.040712l-0.248663 0.249687c-30.280654-30.280654-60.562331-60.562331-90.838891-90.837868 0 0-38.861076 9.28548-68.781526 0-53.370535-16.882506-108.531855-85.404112-77.034491-162.323992 16.298198-39.801495 149.0732-173.940564 189.836603-188.460256 90.00592-32.057113 189.059913 56.519248 156.821675 148.56871 8.252964 8.252964 16.507976 16.506952 24.76094 24.76094 66.481134-77.945233 132.98478-155.911956 199.465914-233.857189 34.113959-43.122123 71.430866-102.475929 119.67873-130.684388 57.045227-33.350572 113.946168-7.697309 151.73482 25.594935l0.301875-0.300852C949.949982 16.048767 976.236672 73.37745 942.638459 130.850419zM787.646456 5.245723c-28.350698 17.430998-75.092255 84.399225-97.668437 112.801089-79.320557 93.533256-158.662603 187.095165-237.983159 280.628422-1.375324 0.915859-2.750647 1.834788-4.125971 2.750647-31.179117-31.178093-62.365396-62.365396-93.54349-93.54349 3.237741-19.158339 19.298532-31.476899 13.756305-59.152215-7.450692-37.193087-54.281277-71.997778-97.66946-45.394886-20.756743 12.727882-134.39592 127.756709-143.06537 148.567687-17.472953 41.944298 12.119015 83.241866 46.771233 90.791819 27.112498 5.9055 41.511439-9.504468 59.152215-13.756305 38.721907 38.721907 77.44893 77.44893 116.176976 116.177999l0.249687-0.251733c38.994106 38.994106 77.987189 77.987189 116.975155 116.975155-4.251837 17.640776-19.661805 32.04074-13.756305 59.152215 7.547907 34.651194 48.847521 64.244186 90.791819 46.771233 20.810978-8.66945 135.840828-122.308627 148.56871-143.06537 26.601868-43.388183-8.204869-90.219791-45.394886-97.66946-27.677363-5.54325-39.995923 10.518564-59.153238 13.756305-31.178093-31.178093-62.364373-62.365396-93.542466-93.542466 0.916882-1.3743 1.832741-2.750647 2.750647-4.125971 93.533256-79.32158 187.094142-158.664649 280.628422-237.984183 28.40084-22.576181 95.369068-69.316715 112.800066-97.668437 20.159132-32.791847 6.551206-64.828494-13.4575-88.215134l-0.185218 0.188288C853.264942-0.971885 820.840462-15.162072 787.646456 5.245723z"  horiz-adv-x="1024" />

    
    <glyph glyph-name="guanli" unicode="&#58932;" d="M382.197702 766.039089 236.817614 766.039089c-58.656935 0-107.779725-48.663326-107.779725-107.320261l0-145.382135c0-58.656935 49.123814-105.312534 107.779725-105.312534l250.236228 0L487.053841 658.718829C487.053841 717.373717 440.853613 766.039089 382.197702 766.039089zM434.531628 460.543304 236.817614 460.543304c-29.330002 0-54.384631 23.466458-54.384631 52.79339L182.432982 658.718829c0 29.327956 25.053606 53.924143 54.384631 53.924143l145.380088 0c29.330002 0 52.334949-24.595164 52.334949-53.924143L434.532651 460.543304zM789.978059 766.039089 644.593877 766.039089c-58.656935 0-107.647719-48.663326-107.647719-107.320261L536.946159 408.023136l253.0319 0c58.654888 0 104.985076 46.656623 104.985076 105.312534L894.963135 658.718829C894.962112 717.373717 848.631924 766.039089 789.978059 766.039089zM789.978059 460.543304 589.467349 460.543304 589.467349 658.718829c0 29.327956 25.799596 53.924143 55.125505 53.924143L789.976012 712.642972c29.327956 0 51.588959-24.595164 51.588959-53.924143l0-145.382135 0.002047 0C841.567018 484.010785 819.303968 460.543304 789.978059 460.543304zM129.036865 250.940518l0-145.380088c0-58.656935 49.123814-105.447611 107.779725-105.447611l145.380088 0c58.656935 0 104.85614 46.790676 104.85614 105.447611L487.052818 358.127749 236.817614 358.127749C178.160679 358.127749 129.036865 309.597453 129.036865 250.940518zM434.531628 105.56043c0-29.330002-23.003923-52.051493-52.334949-52.051493L236.817614 53.508937c-29.330002 0-54.384631 22.720468-54.384631 52.051493L182.432982 250.940518c0 29.330002 25.053606 54.667064 54.384631 54.667064l197.715037 0L434.532651 105.56043zM789.976012 358.127749 536.947182 358.127749l0-252.568343c0-58.655911 48.990784-105.447611 107.646696-105.447611l145.381112 0c58.655911 0 104.986099 46.790676 104.986099 105.447611l0 145.381112C894.962112 309.59643 848.631924 358.127749 789.976012 358.127749z"  horiz-adv-x="1024" />

    
    <glyph glyph-name="weibiaoti201" unicode="&#58926;" d="M287.936-63.616 287.936 829.344 736.064 382.656Z"  horiz-adv-x="1024" />

    
    <glyph glyph-name="jian" unicode="&#58975;" d="M197.252931 431.169179c-22.298157 0-46.311558-17.152429-46.311558-46.311558s22.298157-46.311558 51.457286-46.311558l617.487437 0c29.159129 0 51.457286 17.152429 51.457286 46.311558 0 34.304858-29.159129 46.311558-56.603015 46.311558L197.252931 431.169179z"  horiz-adv-x="1024" />

    
    <glyph glyph-name="qingjiashenqing" unicode="&#58991;" d="M736.996693 305.902933c0 6.167893-5.05856 11.158187-11.246933 11.158187L298.257067 317.06112c-6.222507 0-11.25376-4.993707-11.25376-11.158187l0-44.62592c0-6.167893 5.03808-11.1616 11.25376-11.1616l427.496107 0c6.188373 0 11.246933 4.993707 11.246933 11.1616L737.000107 305.902933zM725.74976 160.866987 298.257067 160.866987c-6.222507 0-11.25376-4.990293-11.25376-11.158187l0-44.632747c0-6.16448 5.03808-11.158187 11.25376-11.158187l427.496107 0c6.188373 0 11.246933 4.993707 11.246933 11.158187L737.000107 149.7088C736.996693 155.876693 731.938133 160.866987 725.74976 160.866987zM871.990613 562.51392l20.452693 0L892.443307 71.611733c0-42.40384-0.088747-79.865173 0-109.71136L131.55328-38.099627 131.55328 806.096213c16.411307-0.034133 59.549013 0 110.44864 0l449.993387 0 67.495253 68.80256L152.009387 874.898773c-49.70496 0-89.99936-39.963307-89.99936-89.255253l0-803.28704c0-49.291947 40.2944-89.255253 89.99936-89.255253l719.977813 0c49.701547 0 89.99936 39.963307 89.99936 89.255253L961.98656 629.449387 871.990613 562.51392zM950.07744 784.943787c11.912533 15.950507 5.911893 33.819307-0.303787 44.455253-10.21952 17.42848-30.805333 34.013867-44.274347 38.611627-12.547413 4.293973-34.2528 6.888107-48.892587-9.065813-5.799253-6.314667-15.90272-18.783573-22.207147-26.494293l95.156907-74.0864C929.55648 758.36416 938.216107 768.989867 950.07744 784.943787zM616.062293 536.20736c-3.65568-11.769173-13.318827-68.293973-13.718187-85.551787-0.34816-16.30208 5.07904-22.02624 20.872533-17.93024 15.424853 3.98336 67.013973 28.57984 83.094187 39.284053 7.724373 5.12 15.342933 12.663467 20.394667 19.070293 7.95648 10.0864 173.564587 228.99712 173.564587 228.99712l-95.122773 74.113707c0 0-164.611413-216.275627-176.431787-232.5504C621.950293 552.311467 618.847573 545.252693 616.062293 536.20736z"  horiz-adv-x="1024" />

    
    <glyph glyph-name="picture" unicode="&#58905;" d="M1037.654 893.654h-983.041c-30.163 0-54.613-24.455-54.613-54.621v-873.788c0-30.15 24.45-54.578 54.613-54.578h983.041c30.163 0 54.613 24.427 54.613 54.578v873.787c0 30.168-24.45 54.623-54.613 54.623v0zM928.422 74.487h-764.578v273.037l163.834 163.849 273.071-273.066 163.834 163.86 163.838-163.86v-163.821zM819.196 511.372c-60.325 0-109.22 48.893-109.22 109.216 0 60.344 48.895 109.221 109.22 109.221 60.325 0 109.226-48.877 109.226-109.221 0-60.323-48.9-109.216-109.226-109.216v0z"  horiz-adv-x="1093" />

    
    <glyph glyph-name="arrow-right-copy-copy" unicode="&#58921;" d="M576 256h-448v256h448v-256zM576 64l320 320-320 320v-640z"  horiz-adv-x="1024" />

    
    <glyph glyph-name="attachment" unicode="&#58951;" d="M472.153474 776.771028 92.638513 378.249257C-3.525822 277.268836-2.288327 115.375923 95.536728 15.836811L99.321659 11.985562C197.267042-87.675987 357.082027-88.489975 455.906639 10.088378L955.925037 508.860785C1034.944759 587.683597 1036.587465 716.831798 959.634413 797.38661L941.34458 779.914551 923.054748 762.442492 927.277389 758.022212 945.567221 775.494271 963.857054 792.96633C886.268179 874.186725 760.692811 873.350145 683.951435 791.055095L209.92702 282.726144C171.75695 241.793754 173.954266 177.767398 214.90487 139.580341L226.383979 128.8759C267.274317 90.745043 331.360614 92.965664 369.461105 133.823439L738.140738 529.18394C747.66794 539.400614 747.109013 555.406187 736.892339 564.933391 726.675665 574.460593 710.670091 573.901666 701.142889 563.684992L332.463258 168.324491C313.421342 147.904535 281.346492 146.793129 260.88503 165.873747L249.405922 176.578189C228.898628 195.701551 227.799923 227.7161 246.924868 248.225092L720.949284 756.554043C777.863249 817.586798 869.791012 818.199218 927.277389 758.022212 950.573468 733.635768 987.153133 768.579886 963.857054 792.96633L959.634413 797.38661C936.338334 821.773054 899.758669 786.828935 923.054748 762.442492 980.99271 701.792763 979.749843 604.079622 920.198449 544.676623L420.180051 45.904215C341.242127-32.837003 213.662948-32.187202 135.402204 47.4448L131.617273 51.296051C52.922438 131.369749 51.922852 262.13863 129.272687 343.362287L508.787648 741.884058C518.421419 752.000306 518.030293 768.010859 507.914046 777.64463 497.797798 787.2784 481.787245 786.887276 472.153474 776.771028L472.153474 776.771028Z"  horiz-adv-x="1024" />

    
    <glyph glyph-name="tongji" unicode="&#58888;" d="M534.75392 895.36l-20.468 0 0-468.719c0-7.685 2.558-12.805 7.676-17.929 5.114-5.119 12.792-7.685 17.912-7.685l483.583 0 0 20.494C1026.01392 687.896 808.53092 895.36 534.75392 895.36L534.75392 895.36zM555.22192 442.01 555.22192 854.376C790.62092 844.132 972.28292 667.403 982.52092 442.01L555.22192 442.01 555.22192 442.01zM486.14292-126.6c271.214 0 493.818 212.59 493.818 476.405l0 20.489L481.02292 370.294 481.02292 854.377l-20.466 0C207.24692 854.376-0.00208 628.986-0.00208 352.365-0.00208 83.428 214.92192-126.6 486.14292-126.6L486.14292-126.6zM437.52492 810.835l0-458.469c0-7.684 2.563-12.805 7.677-17.928 5.118-5.124 12.795-7.687 17.91-7.687l473.35 0c-10.235-227.958-209.807-412.368-450.32-412.368-248.19 0-445.205 192.095-445.205 437.982C40.93792 598.251 217.47992 800.591 437.52492 810.835L437.52492 810.835z"  horiz-adv-x="1025" />

    
    <glyph glyph-name="gongyingshang" unicode="&#59062;" d="M694.242-128.003 329.763-128.003C147.915-128.003 0 19.908 0 201.758L0 566.237C0 748.084 147.915 896 329.763 896l364.479 0c181.85 0 329.761-147.916 329.761-329.763l0-364.479C1024.003 19.908 876.092-128.003 694.242-128.003zM329.763 843.917c-153.105 0-277.681-124.575-277.681-277.683l0-364.476c0-153.1 124.575-277.691 277.681-277.691l364.479 0c153.1 0 277.681 124.58 277.681 277.691L971.923 566.237c0 153.105-124.58 277.681-277.681 277.681L329.763 843.918 329.763 843.917zM757.807 281.038c-9.07 20.975-27.21 32.95-60.475 41.935-78.63 17.975-78.63 23.965-69.555 41.945 33.265 59.908 57.46 137.793 21.17 197.705-21.17 32.95-57.46 50.923-99.79 50.923-42.335 0-81.65-17.972-99.795-53.92-30.24-47.93-21.173-116.825 21.172-197.703 9.068-17.975 9.068-23.965-69.558-41.945-30.235-5.99-48.383-20.97-60.48-41.94-9.073-20.96-9.073-41.93-9.073-95.85l429.414 0C763.857 239.103 766.882 260.068 757.807 281.038L757.807 281.038zM382.828 233.108c0 35.945 3.027 44.93 33.273 50.93 42.333 8.98 84.668 17.975 96.765 47.92 6.045 14.98 6.045 29.965-6.045 50.935-33.273 62.9-42.34 116.823-21.172 149.773 12.098 20.97 33.263 32.95 63.508 32.95 27.21 0 51.405-11.98 63.5-29.952 24.19-41.94 3.025-107.84-21.17-152.771-9.07-17.975-12.09-35.955-6.045-50.935 12.1-29.945 54.435-38.94 96.765-47.92 30.24-6 33.27-14.985 33.27-50.93L382.828 233.108 382.828 233.108zM177.2 757.334l0-65.903 48.383 0 0 14.98c0 2.993 3.025 5.988 6.05 5.988l574.564 0c3.02 0 6.045-2.995 6.045-5.988l0-608.104c0-2.99-3.025-5.99-6.045-5.99L231.633 92.317c-3.025 0-6.05 3-6.05 5.99l0 8.985L177.2 107.292l0-68.895 680.402 0L857.602 757.334 177.2 757.334 177.2 757.334zM261.873 284.038 131.84 284.038l0-134.8 130.033 0c3.022 0 6.047 2.99 6.047 5.99l0 122.81C267.921 284.038 264.896 284.038 261.873 284.038L261.873 284.038zM219.536 203.158c0-3-3.022-6-6.047-6l-30.24 0c-3.025 0-6.047 3-6.047 6l0 29.95c0 3 3.023 5.995 6.047 5.995l30.24 0c3.025 0 6.047-2.995 6.047-5.995L219.536 203.158 219.536 203.158zM261.873 466.764 131.84 466.764l0-134.805 130.033 0c3.022 0 6.047 3 6.047 6L267.92 460.771C267.921 463.769 264.896 466.764 261.873 466.764L261.873 466.764zM219.536 382.894c0-3.005-3.022-6-6.047-6l-30.24 0c-3.025 0-6.047 2.995-6.047 6l0 29.95c0 2.997 3.023 5.99 6.047 5.99l30.24 0c3.025 0 6.047-2.993 6.047-5.99L219.536 382.894 219.536 382.894zM261.873 646.497 131.84 646.497l0-134.801 130.033 0c3.022 0 6.047 2.998 6.047 5.993L267.92 640.507C267.921 643.504 264.896 646.497 261.873 646.497L261.873 646.497zM219.536 562.624c0-2.998-3.022-5.992-6.047-5.992l-30.24 0c-3.025 0-6.047 2.995-6.047 5.992l0 29.953c0 2.998 3.023 5.992 6.047 5.992l30.24 0c3.025 0 6.047-2.995 6.047-5.992L219.536 562.624 219.536 562.624z"  horiz-adv-x="1024" />

    
    <glyph glyph-name="baoxiao" unicode="&#58891;" d="M700 500c-152 0-280-124-280-280s124-280 280-280 280 124 280 280c4 156-124 280-280 280zM700-12c-128 0-232 104-232 232s104 232 232 232 232-104 232-232-104-232-232-232zM184 668h400v-64h-400v64zM184 504h320v-64h-320v64zM184 316h160v-64h-160v64zM380 20h-280v780h644v-224c16 0 52-4 68-4v260c0 16-16 32-32 32h-716c-16 0-32-16-32-32v-848c0-16 16-32 32-32h356c-16 20-28 52-40 68v0zM756 380h76l-84-144h60v-44h-72v-32h72v-44h-72v-60h-64v60h-76v44h76v32h-76v44h60l-80 140h68c32-64 52-108 60-128v0z"  horiz-adv-x="1024" />

    
    <glyph glyph-name="dui" unicode="&#58886;" d="M554.455815 139.528392L150.754941 587.848935a18.92496 18.92496 0 0 1-26.775594 1.611846L6.162938 483.363435a18.962886 18.962886 0 0 1-1.194662-26.775594L413.675352 2.654283c0.322369-3.963243 1.896289-7.850635 4.740721-10.998474l94.871317-105.376756a18.962886 18.962886 0 0 1 16.459785-6.030198 18.65948 18.65948 0 0 1 15.322012 4.589019l117.854334 106.116308a18.526739 18.526739 0 0 1 5.688866 9.784849l840.738501 756.998397a18.962886 18.962886 0 0 1 1.479105 26.718706L1415.939713 889.83289c-6.826639 7.585154-18.943923 8.34367-26.737669 1.327402L554.474778 139.528392z"  horiz-adv-x="1517" />

    
    <glyph glyph-name="yuyin" unicode="&#58985;" d="M636.16512-61.44l-70.80448 70.8096c107.59168 92.06272 176.03072 228.58752 176.03072 381.31712 0 145.49504-62.2848 276.1216-161.1776 367.77472L651.19232 829.44c117.01248-109.82912 190.51008-265.47712 190.51008-438.60992 0-180.44416-79.77984-341.90848-205.53728-452.27008zM445.08672 129.64352l-72.93952 72.92928c66.28352 36.64384 111.19104 107.16672 111.19104 188.25728 0 73.61536-37.04832 138.5216-93.47072 177.29024l71.62368 71.61344C535.72096 582.02624 583.68 492.11904 583.68 390.83008c0-108.65664-54.95808-204.44672-138.59328-261.18656zM253.96736 304.81408c-39.5776 0-71.66976 32.08192-71.66976 71.67488 0 39.59808 32.08704 71.67488 71.66976 71.67488 39.60832 0 71.68-32.0768 71.68-71.67488 0-39.59296-32.07168-71.67488-71.68-71.67488z"  horiz-adv-x="1024" />

    
    <glyph glyph-name="tuoyuan" unicode="&#59058;" d="M1420.075472-128L144.90566-128C64.869434-128 0-63.130566000000044 0 16.90566000000001L0 751.09434C0 831.130566 64.869434 896 144.90566 896L1420.075472 896C1500.111698 896 1564.981132 831.130566 1564.981132 751.09434L1564.981132 16.90566000000001C1564.981132-63.130566000000044 1500.111698-128 1420.075472-128ZM1507.018868 712.45283C1507.018868 808.476981 1487.118491 838.037736 1391.09434 838.037736L173.886792 838.037736C77.862642 838.037736 57.962264 808.476981 57.962264 712.45283L57.962264 103.84905700000002C57.962264 7.824906000000055 77.862642-70.037736 173.886792-70.037736L1391.09434-70.037736C1487.118491-70.037736 1507.018868-40.47698100000002 1507.018868 55.54717000000005L1507.018868 712.45283ZM1217.207547 268.075472C1153.159245 268.075472 1101.283019 320 1101.283019 384 1101.283019 448.048302 1153.159245 499.924528 1217.207547 499.924528 1281.207547 499.924528 1333.132075 448.048302 1333.132075 384 1333.132075 320 1281.207547 268.075472 1217.207547 268.075472ZM782.490566 268.075472C718.490566 268.075472 666.566038 320 666.566038 384 666.566038 448.048302 718.490566 499.924528 782.490566 499.924528 846.490566 499.924528 898.415094 448.048302 898.415094 384 898.415094 320 846.490566 268.075472 782.490566 268.075472ZM347.773585 268.075472C283.725283 268.075472 231.849057 320 231.849057 384 231.849057 448.048302 283.725283 499.924528 347.773585 499.924528 411.773585 499.924528 463.698113 448.048302 463.698113 384 463.698113 320 411.773585 268.075472 347.773585 268.075472Z"  horiz-adv-x="1565" />

    
    <glyph glyph-name="tianqi" unicode="&#58977;" d="M864.256 352.256v64h128v-64h-128z m-125.952 303.104l90.624 90.624 45.056-45.056-90.624-90.624-45.056 45.056zM512 128c-141.312 0-256 114.688-256 256s114.688 256 256 256 256-114.688 256-256-114.688-256-256-256z m0 448.512c-106.496 0-192.512-86.016-192.512-192.512s86.016-192.512 192.512-192.512 192.512 86.016 192.512 192.512-86.016 192.512-192.512 192.512z m-31.744 287.744h64v-128h-64v128z m-330.24-163.328l45.056 45.056 90.624-90.624-45.056-45.056-90.624 90.624z m9.728-348.672h-128v64h128v-64z m125.952-239.616l-90.624-90.624-45.056 45.056 90.624 90.624 45.056-45.056z m258.048-208.896h-64v128h64v-128z m330.24 163.328l-45.056-45.056-90.624 90.624 45.056 45.056 90.624-90.624z"  horiz-adv-x="1024" />

    
    <glyph glyph-name="chaosong" unicode="&#58966;" d="M711.74656 781.4656H225.76128c-57.96864 0-104.94464-46.98624-104.94464-104.93952v-670.23872c0-57.96864 46.976-104.94464 104.94464-104.94464h485.98528c57.95328 0 104.94464 46.976 104.94464 104.94464V676.52608c0 57.95328-46.99136 104.93952-104.94464 104.93952z m59.44832-783.09376c0-29.62432-24.09984-53.7088-53.7088-53.7088H220.02176c-29.62432 0-53.7088 24.08448-53.7088 53.7088V684.43648c0 29.60896 24.0896 53.7088 53.7088 53.7088h497.46432c29.60896 0 53.7088-24.09984 53.7088-53.7088v-686.06464zM257.75616 574.0544c-11.64288 0-21.11488 9.472-21.11488 21.11488s9.472 21.11488 21.11488 21.11488h391.89504c11.64288 0 21.11488-9.472 21.11488-21.11488s-9.472-21.11488-21.11488-21.11488H257.75616zM257.75616 427.264c-11.64288 0-21.11488 9.472-21.11488 21.11488s9.472 21.11488 21.11488 21.11488h391.89504c11.64288 0 21.11488-9.472 21.11488-21.11488s-9.472-21.11488-21.11488-21.11488H257.75616zM257.75616 275.35872c-11.64288 0-21.11488 9.472-21.11488 21.11488s9.472 21.11488 21.11488 21.11488h244.32128c11.64288 0 21.11488-9.472 21.11488-21.11488s-9.472-21.11488-21.11488-21.11488H257.75616zM887.70048 77.04576a20.62848 20.62848 0 0 0-20.608 20.608V698.09664c0 63.11424-32.39424 136.81152-123.68896 136.81152h-414.9248c-11.3664 0-20.608 9.2416-20.608 20.60288s9.2416 20.60288 20.608 20.60288h414.92992c97.08544 0 164.89472-73.20576 164.89472-178.01728v-600.448a20.6336 20.6336 0 0 0-20.60288-20.60288z"  horiz-adv-x="1024" />

    
    <glyph glyph-name="mp3" unicode="&#58892;" d="M188.492 714.638h28.002l0.332 85.14 15.941-85.14h21.605l16.274 85.14v-85.14h28.003v114.246h-42.826l-12.411-67.676-12.095 67.676h-42.825v-114.246zM310.64 714.638h29.943v43.53h10.47c12.219 0.017 21.535 3.022 27.967 8.995 6.433 5.978 9.667 14.821 9.72 26.525 0.051 10.22-2.623 18.586-8.007 25.101-5.383 6.512-13.773 9.877-25.152 10.094h-44.941v-114.246zM422.669 793.684c-0.035 5.909 0.577 10.029 1.853 12.355 1.258 2.323 3.321 3.439 6.205 3.339 2.57 0.073 4.475-0.79 5.717-2.597 1.258-1.814 1.87-5.001 1.87-9.572 0-6.412-1.067-10.723-3.216-12.932-2.151-2.211-5.437-3.239-9.858-3.083h-4.353v-18.545h7.586c3.776 0.113 6.537-0.834 8.32-2.845 1.783-2.004 2.658-5.756 2.639-11.247 0.089-6.968-0.419-11.687-1.503-14.149-1.102-2.47-3.339-3.625-6.712-3.469-1.626-0.004-2.989 0.33-4.125 1.003-1.119 0.672-2.010 1.728-2.657 3.159-0.647 1.425-1.153 3.226-1.539 5.405-0.366 2.188-0.558 4.867-0.558 8.050h-28.003c-0.052-13.48 3.025-22.926 9.194-28.344 6.171-5.414 15.732-8.018 28.65-7.815 12.34-0.069 21.605 2.827 27.845 8.696 6.223 5.87 9.351 15.13 9.351 27.784 0.106 6.204-1.223 11.561-3.932 16.072-2.728 4.501-7.429 7.419-14.089 8.744 5.873 1.871 10.016 4.809 12.428 9.143 2.413 4.329 3.583 8.908 3.496 13.74 0.262 10.054-2.22 17.782-7.446 23.178-5.208 5.388-14.7 8.119-28.457 8.171-11.642 0.026-20.435-2.744-26.43-8.314-5.925-5.43-9.037-14.070-9.334-25.912l27.058-0.014zM604.774 895.999v-279.674h281.479v-744.324h-748.505v1023.998h467.026zM188.492 477.010v-554.602h647.017v554.602h-647.017zM340.584 807.459h5.628c3.811 0.009 6.696-1.128 8.653-3.422 1.975-2.296 2.954-5.794 2.971-10.51-0.017-4.784-0.997-8.31-2.971-10.571-1.957-2.261-4.842-3.381-8.653-3.365h-5.628v27.867zM671.285 109.403c0-34.686-27.74-62.74-63.172-62.74-33.894 0-62.648 28.054-62.648 62.74 0 34.696 28.754 62.753 62.648 62.753 16.955 0 25.677-5.1 33.893-11.734v136.207h-199.253v-216.3c0-34.695-28.247-62.749-63.173-62.749-34.4 0-62.648 28.054-62.648 62.749 0 34.687 28.248 62.749 62.648 62.749 16.956 0 25.171-5.105 33.387-11.729v250.482h258.317v-272.428zM637.339 895.999l248.914-247.266h-248.914v247.266z"  horiz-adv-x="1024" />

    
    <glyph glyph-name="shuaxin" unicode="&#58976;" d="M897.2788768 464.48698880000006C863.7973898666667 649.3151904 702.1019114666667 789.5021365333333 507.62024959999997 789.5021365333333c-159.69470933333332 0-297.2914623999999-94.5163808-359.9483648-230.6559456l41.8054688 0c59.59953599999999 113.57334399999999 178.64906879999998 191.04881173333334 315.8124864 191.04881173333334 172.53215360000002 0 316.3877205333333-122.58935359999998 349.3278112-285.4080128L745.2652405333333 464.48698880000006l132.8005856-153.77099413333332 123.48331413333332 153.77099413333332L897.2788768 464.48698880000006zM130.78924266666667 308.3866773333334c33.4825792-184.8282016 195.17696533333333-325.0151466666667 389.6597194666667-325.0151466666667 159.69361813333336 0 297.28928 94.5163808 359.94727359999996 230.65485439999998l-41.8054688 0c-59.59953599999999-113.57334399999999-178.64906879999998-191.04771946666665-315.8113941333333-191.04771946666665-172.53433706666667 0-316.38881173333334 122.5882624-349.3278112 285.4080128l109.35241066666667 0L150.00229440000004 462.15767146666667 26.51898026666663 308.3866773333334 130.78924266666667 308.3866773333334z"  horiz-adv-x="1024" />

    
    <glyph glyph-name="arrowdown" unicode="&#59119;" d="M523.578 161.1l434.701 446.701h-893.418l458.716-446.701z"  horiz-adv-x="1024" />

    
    <glyph glyph-name="ok1" unicode="&#58899;" d="M512 896C229.216 896 0 666.752 0 384c0-282.784 229.216-512 512-512 282.752 0 512 229.216 512 512 0 282.752-229.248 512-512 512z m292.608-357.024l-320-384c-12.128-14.56-30.08-23.008-49.024-23.072h-0.128a63.936 63.936 0 0 0-48.992 22.88l-167.52 199.488a64 64 0 1 0 97.952 82.368l118.336-140.96 271.04 325.248a64.032 64.032 0 0 0 98.336-81.952z"  horiz-adv-x="1024" />

    
    <glyph glyph-name="edit" unicode="&#58889;" d="M791.582118 432.730353a29.696 29.696 0 0 1-25.750589 15.179294 29.816471 29.816471 0 0 1-25.72047-15.058823c-2.680471 0.692706-4.336941 0.060235-4.336941-4.48753v-293.044706c0-21.534118-17.980235-39.062588-40.026353-39.062588H235.580235c-22.046118 0-40.026353 17.528471-40.026353 39.062588V662.799059c0 21.564235 17.950118 39.062588 40.026353 39.062588H595.727059c2.288941 0 3.463529 0.451765 4.156235 1.144471 1.957647-0.391529 3.794824-1.144471 5.842824-1.144471 16.564706 0 30.027294 13.131294 30.027294 29.304471a29.696 29.696 0 0 1-30.027294 29.30447c-2.409412 0-4.517647-0.813176-6.806589-1.325176a4.096 4.096 0 0 1-3.19247 1.325176H215.582118C171.429647 760.470588 135.529412 725.413647 135.529412 682.315294v-566.543059c0-43.098353 35.900235-78.155294 80.052706-78.155294h500.224c44.152471 0 80.022588 35.056941 80.022588 78.155294V428.363294c0 2.529882-1.686588 3.794824-4.246588 4.367059z m56.621176 318.283294a30.539294 30.539294 0 0 1-42.375529-2.620235L342.949647 235.279059a28.822588 28.822588 0 0 1 2.680471-41.35153 30.539294 30.539294 0 0 1 42.375529 2.620236l462.908235 513.084235a28.912941 28.912941 0 0 1-2.710588 41.381647z"  horiz-adv-x="1024" />

    
    <glyph glyph-name="move" unicode="&#59009;" d="M192 528h416v-32h-416zM192 400h416v-32h-416zM192 272h416v-32h-416zM736 576h96l-128 128-128-128h96v-384h-96l128-128 128 128h-96z"  horiz-adv-x="1024" />

    
    <glyph glyph-name="pen" unicode="&#58988;" d="M1018.368-37.902c-0.045-15.504-12.606-28.060-28.107-28.098h-900.136c-15.521 0-28.104 12.582-28.104 28.104 0 15.521 12.582 28.103 28.104 28.103h900.159c15.499-0.053 28.047-12.61 28.085-28.107zM165.343 77.151l60.699 219.191 519.76 519.641c24.111 24.111 55.334 23.845 79.246 0l118.868-118.855c23.845-23.845 24.111-55.043 0-79.246l-519.483-519.8-219.377-60.699c-30.257-6.346-45.955 9.366-39.743 39.808zM686.455 677.257l118.868-118.763 79.246 79.246c20.587 20.401 19.222 20.202 0 39.623l-79.233 79.113c-18.732 20.202-20.587 20.202-39.623 0zM309.778 300.529l118.855-118.855 337.106 337.066-118.855 118.855-337.106-337.066zM225.367 97.354l163.644 44.789-118.855 118.882z"  horiz-adv-x="1088" />

    
    <glyph glyph-name="tianjiahaoyou1" unicode="&#59222;" d="M512-97.58502127999998c-265.62995745 0-481.58502128 215.95506383-481.58502128 481.58502128s215.95506383 481.58502128 481.58502128 481.58502128 481.58502128-215.95506383 481.58502128-481.58502128-215.95506383-481.58502128-481.58502128-481.58502128z m0 912.44936171c-237.39370213 0-430.86434043-193.4706383-430.86434043-430.86434043s193.4706383-430.86434043 430.86434043-430.86434043c237.91659574 0 430.86434043 193.4706383 430.86434043 430.86434043s-193.4706383 430.86434043-430.86434043 430.86434043zM510.03914894 273.21191489c0 58.82553191 33.33446809 109.80765957 82.35574468 135.29872341-10.78468085 7.35319149-22.05957447 13.72595745-33.82468085 19.11829787 28.92255319 25.9812766 47.5506383 63.72765957 47.55063829 105.39574468 0 78.43404255-63.72765957 141.67148936-142.65191489 141.67148936S320.81702128 611.4587234 320.81702128 533.02468085c0-42.15829787 18.13787234-79.41446809 47.55063829-105.39574468-78.43404255-35.78553191-133.33787234-114.70978723-133.33787234-205.8893617v-56.37446809c0-12.74553191 10.29446809-23.04 23.04-23.04h325.99148937c-44.11914894 26.96170213-74.02212766 75.49276596-74.02212766 130.88680851z m154.90723404 122.55319149c-68.62978723 0-124.02382979-54.90382979-124.02382979-122.55319149s55.39404255-122.55319149 124.02382979-122.55319149 124.02382979 54.90382979 124.02382979 122.55319149-55.39404255 122.55319149-124.02382979 122.55319149z m54.90382979-139.71063829h-38.72680851v-39.70723405c0-9.31404255-7.84340426-16.66723404-17.15744681-16.66723404s-16.66723404 7.35319149-16.66723405 16.66723404v39.70723405H610.04255319c-9.31404255 0-17.15744681 7.35319149-16.66723404 16.66723404 0 9.31404255 7.84340426 16.66723404 16.66723404 16.66723404h37.25617021v40.19744681c0 9.31404255 7.84340426 16.66723404 17.15744681 16.66723404s16.66723404-7.35319149 16.66723405-16.66723404v-40.19744681h38.72680851c9.31404255 0 17.15744681-7.35319149 16.66723404-16.66723404 0-9.31404255-7.35319149-16.66723404-16.66723404-16.66723404z"  horiz-adv-x="1024" />

    
    <glyph glyph-name="chakan" unicode="&#58995;" d="M535.223547-34.989887H89.764226V855.503698h364.505359V572.184151h283.474113v-141.659774a20.209509 20.209509 0 1 1 40.45766 0V600.778868L482.864302 896H49.267925v-971.447547h485.955622a20.209509 20.209509 0 1 1 0 40.45766zM494.727245 826.87034l214.344453-214.228529h-214.344453v214.228529zM974.732075-81.39834l-120.832 120.832a201.47683 201.47683 0 0 1 45.790189 127.98068 202.636075 202.636075 0 0 1-202.481509 202.365585c-111.635321 0-202.442868-90.807547-202.442868-202.365585s90.846189-202.365585 202.442868-202.365585c48.572377 0 93.126038 17.195472 128.057962 45.790188l120.832-120.793358 28.633358 28.556075z m-439.508528 248.81268a162.101132 162.101132 0 0 0 161.946566 161.907924 162.101132 162.101132 0 0 0 161.985208-161.907924c0-89.261887-72.684679-161.907925-161.985208-161.907925a162.101132 162.101132 0 0 0-161.946566 161.907925z"  horiz-adv-x="1024" />

    
    <glyph glyph-name="kongqizhiliangyou" unicode="&#58970;" d="M756.2231693351191 606.8869798144225c66.96134479040123 56.674253414351 158.68790956018276 113.7295102130002 187.16791253646997 193.64497006953883-16.76414890911895 16.00214214052263-44.67264680895901 28.480002976287278-69.43786678833926 29.813514821330823-4.6672914576524285-14.9543828337027-56.007497491829106-146.6863029547908-75.24816839888615-132.20817435146083-158.97366209840644 118.96830674709973-418.8179701897501-0.6667559225219465-497.97142327769234-155.6398824857978-90.10730038651434-177.16657369864345-46.768165422598706-425.1045260306696-237.65086095597587-561.5037376094101 274.41768754074815 55.340741569307546 590.5552456621446 68.00910409722144 767.7218193607877 300.80217190339573 64.19907025423954 84.39224962204199 111.34823906113652 297.08738890648857-16.57364721696993 344.8080627898329-121.06382536073961-112.3007475218821-180.69085500340125-182.78637361704128-196.69299714392386-337.0927442577953-12.66836252791376 44.10114173251175-6.572308379143259 94.39358845986861-14.573379449404596 139.92349288349848-88.10703261894895-82.9634869309239-154.30637064075387-170.11801108912755-271.75066385066094-221.6487188154534 98.77512737929739 127.15987950951025 240.50838633821212 229.84029157786384 339.56926625573306 355.7619100884051-49.435189112686 0.47625423037266973-100.48964260863914 5.619799918397786-143.16202165003284 24.86047082545476 71.81913794020275 14.287626911180956 158.78316040625734 15.525887910149969 228.60203057889467 18.478664138460744z"  horiz-adv-x="1024" />

    
    <glyph glyph-name="nan" unicode="&#58967;" d="M934.277979 494.59975L848.149374 859.014611a48.247376 48.247376 0 0 1-57.84566 35.705618l-2.047634-0.639886-2.047634-0.319943-364.414861-86.128604a48.05541 48.05541 0 1 1 22.140043-93.615266l254.674477 60.213236-213.081912-345.154303a289.036335 289.036335 0 1 1 81.90536-50.231021l213.657808 345.858177 59.63734-252.242911a48.247376 48.247376 0 0 1 57.84566-35.705618 48.247376 48.247376 0 0 1 35.705618 57.84566zM422.113528-27.162985A193.501412 193.501412 0 1 0 566.087793 205.563416a193.501412 193.501412 0 0 0-143.846288-232.790389z"  horiz-adv-x="1024" />

    
    <glyph glyph-name="nv" unicode="&#58902;" d="M819.2 520.533c0 170.667-136.533 307.2-307.2 307.2-170.667 0-307.2-136.533-307.2-307.2 0-157.013 119.467-286.72 273.067-303.787v-71.68h-102.4c-20.48 0-34.133-13.653-34.133-34.133s13.653-34.133 34.133-34.133h102.4v-102.4c0-20.48 13.653-34.133 34.133-34.133s34.133 13.653 34.133 34.133v102.4h102.4c20.48 0 34.133 13.653 34.133 34.133s-13.653 34.133-34.133 34.133h-102.4v71.68c153.6 17.067 273.067 146.773 273.067 303.787zM273.067 520.533c0 133.12 105.813 238.933 238.933 238.933s238.933-105.813 238.933-238.933-105.813-238.933-238.933-238.933c-133.12 0-238.933 105.813-238.933 238.933z"  horiz-adv-x="1024" />

    
    <glyph glyph-name="txt" unicode="&#59021;" d="M893.610667-85.333333H130.389333a29.056 29.056 0 0 0-29.056 29.056V32H42.666667v410.666667h58.666666V824.277333c0 16.042667 13.013333 29.056 29.056 29.056h528.256l264.021334-264.021333v-146.645333H981.333333v-410.666667h-58.666666v-88.277333a29.056 29.056 0 0 0-29.056-29.056z m-29.610667 117.333333H160v-58.666667h704V32zM413.568 320.341333v20.821334H242.005333v-20.821334h73.898667v-188.586666h23.765333v188.586666h73.898667z m190.378667-188.586666l-77.738667 108.8 72.192 100.608h-29.653333l-56.874667-81.536-56.618667 81.536h-29.653333l71.594667-100.608-77.141334-108.8h29.610667l62.208 89.728 62.464-89.728h29.610667z m178.048 188.586666v20.821334h-171.562667v-20.821334h73.898667v-188.586666h23.765333v188.586666h73.898667zM658.645333 794.666667H160v-352h704V589.312h-205.354667V794.666667z"  horiz-adv-x="1024" />

    
    <glyph glyph-name="shenqingjilu" unicode="&#59008;" d="M727.04 528.64l37.76-37.76 152.96 152.96-37.76 37.76-152.96-152.96z m-43.52-55.04l-10.24-38.4 38.4 10.24-28.16 28.16z m222.08 233.6l30.08-30.08V723.2l-7.04 7.04-23.04-23.04z m-229.12-178.56L928.64 780.8l7.04-7.04v29.44c0 49.92-39.68 89.6-89.6 89.6H184.32c-49.92 0-89.6-39.68-89.6-89.6v-840.96c0-49.92 39.68-89.6 89.6-89.6h661.76c49.92 0 89.6 39.68 89.6 89.6l0.64 648.32-170.88-170.88-88.96 88.96zM195.84 606.72h254.08c14.08 0 25.6-4.48 25.6-18.56s-10.24-20.48-25.6-20.48H195.84c-14.08 0-25.6 6.4-25.6 20.48s11.52 18.56 25.6 18.56z m0-192h343.68c14.08-0.64 25.6-5.12 25.6-18.56 0-14.08-10.24-20.48-25.6-20.48H195.84c-14.08 0-25.6 6.4-25.6 20.48s11.52 18.56 25.6 18.56z m533.76-209.28c0-14.08-10.24-21.12-25.6-21.12H195.84c-14.08 0-25.6 6.4-25.6 21.12 0 14.08 11.52 17.92 25.6 17.92h509.44c12.8 0 24.32-3.84 24.32-17.92zM639.36 401.92l32 117.76 86.4-86.4-118.4-31.36z m296.96 371.84V723.2l30.72-30.72-23.04-23.04-7.68 7.68v-65.92L1017.6 692.48l-81.28 81.28z"  horiz-adv-x="1024" />

    
    <glyph glyph-name="mp" unicode="&#59142;" d="M836.855172 896v-217.158621h132.413794zM969.268966 599.393103V648.827586h-167.724138V896H54.731034v-1024H971.034483l-1.765517 727.393103z m-383.117242 74.151725l100.634483 143.006896h30.013793v-139.475862h28.248276v-35.310345h-28.248276v-51.2h-37.075862v51.2h-93.572414v31.779311zM393.710345 816.551724h86.510345c14.124138 0 26.482759 0 33.544827-1.765517 10.593103-1.765517 21.186207-5.296552 28.248276-10.593104 7.062069-5.296552 14.124138-12.358621 19.42069-22.951724 5.296552-8.827586 7.062069-19.42069 7.062069-31.77931 0-19.42069-7.062069-37.075862-19.42069-49.434483-12.358621-14.124138-35.310345-21.186207-67.089655-21.186207h-49.434483v-86.510345h-38.841379V816.551724z m-263.062069 0h51.2l51.2-155.365517 5.296552-15.889655c1.765517 5.296552 3.531034 12.358621 7.062069 19.420689l52.965517 153.6h47.668965v-225.986207h-38.841379V744.165517l-52.965517-153.6H220.689655l-52.965517 155.365517v-155.365517H130.648276V816.551724z m820.965517-925.131034H72.386207V507.586207h879.227586v-616.165517zM626.758621 677.075862h52.965517V751.227586zM520.827586 767.117241c-3.531034 5.296552-8.827586 8.827586-15.889655 10.593104-3.531034 0-10.593103 1.765517-24.717241 1.765517h-49.434483v-67.089655h49.434483c17.655172 0 28.248276 3.531034 35.310344 8.827586 7.062069 5.296552 10.593103 14.124138 10.593104 24.717241 1.765517 10.593103 0 15.889655-5.296552 21.186207zM787.42069 322.206897l-164.193104-72.386207v104.165517H236.57931v-312.496552h386.648276V154.482759l164.193104-82.979311z"  horiz-adv-x="1024" />

    
    <glyph glyph-name="biaoqing" unicode="&#58922;" d="M339.968 448.192a49.664 49.664 0 0 1 34.368 14.208c8.96 8.96 14.272 21.76 14.272 34.432a49.664 49.664 0 0 1-14.272 34.368 49.664 49.664 0 0 1-34.368 14.272 49.664 49.664 0 0 1-34.432-14.272 49.664 49.664 0 0 1-14.208-34.368c0-12.608 5.312-25.472 14.208-34.432 8.96-8.96 21.76-14.208 34.432-14.208M681.792 448.192a49.664 49.664 0 0 1 34.432 14.208c8.896 8.96 14.208 21.76 14.208 34.432a49.664 49.664 0 0 1-14.208 34.368 49.664 49.664 0 0 1-34.432 14.272 49.664 49.664 0 0 1-34.432-14.272 49.664 49.664 0 0 1-14.208-34.368c0-12.608 5.312-25.472 14.208-34.432 8.96-8.96 21.76-14.208 34.432-14.208M730.304 329.408l-0.576 0.192-0.512 0.256a14.4 14.4 0 0 1-11.712 0 19.584 19.584 0 0 1-10.88-12.352 269.952 269.952 0 0 0-29.44-58.88c-34.24-51.52-98.048-83.52-166.4-83.52-65.92 0-125.312 30.656-171.712 88.64l-0.384 0.64-0.448 0.576c-11.264 16.96-22.912 34.56-28.928 57.984-4.096 7.808-11.392 15.936-23.168 12.352-7.68-4.224-16.32-16.576-12.608-29.056 2.88-5.632 5.632-11.52 8.512-17.664 8.896-18.688 18.048-38.08 30.336-54.464l0.128-0.128c43.776-60.16 121.664-99.136 198.4-99.136 77.568 0 154.816 39.68 192.192 98.688l0.384 0.576c16.256 21.568 33.024 43.904 38.4 70.656l0.256 1.088 0.448 0.96a14.528 14.528 0 0 1 0 11.84 19.392 19.392 0 0 1-12.288 10.752M510.848 829.632c-242.112 0-446.72-204.608-446.72-446.72 0-242.176 204.608-446.784 446.72-446.784 242.176 0 446.72 204.608 446.72 446.72 0 242.176-204.544 446.72-446.72 446.72z m284.992-731.712a400.192 400.192 0 0 0-284.992-117.76 400.192 400.192 0 0 0-284.928 117.76 400.192 400.192 0 0 0-117.76 284.928c0 107.904 41.856 209.088 117.76 284.992a400.192 400.192 0 0 0 284.928 117.76c107.904 0 209.088-41.856 284.992-117.76a400.192 400.192 0 0 0 117.76-284.992 400.192 400.192 0 0 0-117.76-284.928z"  horiz-adv-x="1024" />

    
    <glyph glyph-name="shenpi" unicode="&#58900;" d="M94.5152 11.502933c0-3.857067 3.293867-7.099733 7.168-7.099733h328.209067c-0.017067-0.733867-0.221867-1.416533-0.221867-2.167467v-40.448H101.6832c-27.648 0-50.141867 22.306133-50.141867 49.7152V845.824C51.541333 873.233067 74.0352 895.5392 101.6832 895.5392h684.032c27.648 0 50.1248-22.306133 50.1248-49.7152v-432.401067a156.689067 156.689067 0 0 1-42.973867 31.675734V845.824a7.202133 7.202133 0 0 1-7.168 7.099733H101.666133c-3.8912 0-7.150933-3.242667-7.150933-7.099733v-834.321067zM685.431467 727.381333c11.861333 0 21.504-9.540267 21.504-21.2992s-9.608533-21.2992-21.469867-21.2992H195.703467c-11.861333 0-21.486933 9.557333-21.486934 21.2992 0 11.776 9.6256 21.2992 21.504 21.2992h489.710934z m21.486933-173.960533c0-11.758933-9.6256-21.2992-21.4528-21.2992H195.703467c-11.861333 0-21.486933 9.557333-21.486934 21.2992 0 11.758933 9.6256 21.2992 21.504 21.2992h489.710934c11.861333 0 21.486933-9.540267 21.486933-21.2992zM195.6864 422.058667H509.952c11.861333 0 21.504-9.557333 21.504-21.2992 0-11.776-9.642667-21.2992-21.504-21.2992H195.6864c-11.861333 0-21.504 9.540267-21.504 21.2992s9.642667 21.2992 21.504 21.2992z m246.2208-152.661334c11.861333 0 21.486933-9.557333 21.486933-21.2992 0-11.776-9.6256-21.2992-21.504-21.2992H195.703467c-11.861333 0-21.504 9.540267-21.504 21.2992s9.642667 21.2992 21.504 21.2992h246.2208z m480.494933-217.4464c27.648 0 50.141867-22.306133 50.107734-49.7152v-80.059733c0-27.409067-22.493867-49.7152-50.141867-49.7152H522.786133c-27.648 0-50.141867 22.306133-50.141866 49.7152V2.218667c0 27.409067 22.493867 49.7152 50.141866 49.7152h54.971734l107.383466 148.906666c-44.151467 15.428267-76.100267 56.7808-76.100266 105.7792 0 62.088533 50.926933 112.5888 113.544533 112.5888 62.634667 0 113.544533-50.517333 113.544533-112.5888 0-48.9984-31.914667-90.350933-76.100266-105.7792l107.349333-148.906666h55.022933zM652.014933 306.6368c0-38.382933 31.317333-69.5296 69.922134-69.905067h1.314133c38.621867 0.375467 69.905067 31.556267 69.905067 69.905067 0 38.587733-31.624533 69.973333-70.570667 69.973333-38.929067 0-70.570667-31.402667-70.570667-69.973333z m64-136.311467l-85.384533-118.3744h183.927467l-85.9136 119.176534-12.629334-0.802134z m213.538134-248.183466h0.034133V2.218667a7.202133 7.202133 0 0 1-7.168 7.099733H522.8032c-3.8912 0-7.168-3.242667-7.168-7.099733v-80.0768c0-3.857067 3.2768-7.099733 7.168-7.099734h399.598933c3.8912 0 7.168 3.242667 7.168 7.099734z"  horiz-adv-x="1024" />

    
    <glyph glyph-name="cloud-departure" unicode="&#58983;" d="M843.648 825.984H189.568a23.68 23.68 0 0 1-23.744-23.808v-580.736a23.68 23.68 0 0 1 23.744-23.744c1.856 0 3.584 0.64 5.312 1.024 1.664-0.384 3.392-1.024 5.312-1.024h137.92a23.68 23.68 0 1 1 0 47.488H213.376V778.432h606.464v-568.896a23.808 23.808 0 0 1 47.552 0v592.64a23.744 23.744 0 0 1-23.744 23.808zM702.848 344.96c-7.36 0-14.528-1.28-21.12-3.584-6.976 27.584-22.528 56.192-54.464 56.192-13.376 0-27.84-4.096-40.256-11.264a70.144 70.144 0 0 1-53.184 22.592 63.68 63.68 0 0 1-46.528-20.672 63.232 63.232 0 0 1-40.64 15.424c-0.832 0-1.408-0.384-2.24-0.448-0.768 0.064-1.536 0.448-2.304 0.448a63.36 63.36 0 0 1-63.296-53.184c-0.256-1.92 0.128-3.712 0.256-5.504-0.064-1.088-0.576-1.92-0.512-3.008l5.184-207.36-24.32 23.616c-24.832 24.128-65.28 24.128-93.248-3.008a62.272 62.272 0 0 1-1.088-88.384l123.648-135.616a55.936 55.936 0 0 1 42.304-19.264h284.416a55.296 55.296 0 0 1 55.168 49.344 22.784 22.784 0 0 1 0.832 6.016V282.048c0.064 34.624-28.736 62.912-68.608 62.912z m21.12-373.632a23.68 23.68 0 0 1-0.448-4.736c0-3.904-3.648-7.104-8-7.104H431.04a7.936 7.936 0 0 0-6.72 3.392l-124.992 137.152c-2.944 2.88-4.544 6.528-4.544 10.496s1.6 7.744 7.744 13.76a17.408 17.408 0 0 0 23.808 0l66.112-64.256a23.68 23.68 0 0 1 40.32 17.664l-6.656 265.6-0.064 0.256a16.064 16.064 0 0 0 16.064 12.608h4.544c9.024 0 16.384-6.848 16.384-15.232v-213.376a23.808 23.808 0 0 1 47.552 0V335.68a22.72 22.72 0 0 1 6.848 12.608c1.216 7.36 8.192 13.056 20.8 13.056 9.088 0 16.512-6.912 16.512-15.296v-222.4a23.808 23.808 0 0 1 47.552 0V337.344c1.344 3.968 11.84 11.328 25.792 12.416 5.248-7.296 11.264-30.336 11.264-48.192V116.672a23.68 23.68 0 1 1 47.488 0V284.8c1.472 7.104 8.256 12.48 20.544 12.48 9.152 0 16.512-6.72 16.512-15.232v-310.72zM297.984 505.92c0-13.184 10.624-23.808 23.808-23.808h223.808a23.744 23.744 0 0 1 0 47.552H321.792a23.744 23.744 0 0 1-23.808-23.744zM595.712 505.92c0-13.184 10.624-23.808 23.744-23.808h121.344a23.744 23.744 0 0 1 0 47.552H619.456a23.68 23.68 0 0 1-23.744-23.744zM391.232 699.648h82.688c-6.208-3.456-12.8-6.656-19.904-9.408l-25.792 9.28-5.376-8.576c4.736-1.6 10.112-3.584 16.192-5.952a207.36 207.36 0 0 0-18.368-4.864c1.408-2.56 2.944-6.08 4.672-10.56a357.76 357.76 0 0 1 28.288 9.536l23.936-10.048h-59.136v25.856h-15.936v-38.016h40.96c-1.472-2.496-2.752-4.864-4.096-6.976h-40.576v-50.688h16.64v38.528h16.064c-4.928-6.848-8.96-10.752-12.288-11.648l5.696-12.352c8.448 1.536 24.576 2.752 48.512 3.584l3.52-4.736-6.656 0.32c1.088-3.648 2.24-7.936 3.2-12.928 12.8-0.128 20.992 0.064 24.512 0.576a10.688 10.688 0 0 1 7.808 4.352 20.288 20.288 0 0 1 2.56 11.328v33.664h-53.184l4.48 6.976h44.224v38.016h-15.872v-25.856h-7.936l4.224 9.664-16.256 6.208c4.672 2.048 9.344 4.16 13.888 6.4l-6.976 8.32h39.744v12.416h-50.496a322.752 322.752 0 0 1-3.52 9.92l-19.712-1.344c1.216-2.816 2.304-5.696 3.456-8.576h-53.12v-12.416z m100.544-61.888v-20.16a5.248 5.248 0 0 0-1.536-3.904c-0.96-0.96-4.224-1.344-9.728-1.088l8.896 6.4a685.824 685.824 0 0 1-16.576 18.752h18.944z m-27.776 0l-4.672-3.072 5.056-6.08c-9.408-0.576-17.536-0.896-24.448-1.152 2.432 3.456 4.8 6.848 7.104 10.304h16.96zM582.464 599.232a261.76 261.76 0 0 1 20.352 37.312l-13.76 6.272a162.496 162.496 0 0 0-19.84-35.264c3.392-1.792 7.872-4.608 13.248-8.32zM609.536 636.096c6.208-10.688 12.416-22.848 18.624-36.544l14.144 7.232a724.608 724.608 0 0 1-20.032 35.84l-12.736-6.528zM577.472 650.304h57.6v63.488h-57.6v-63.488z m15.872 48.576h25.856v-33.664h-25.856V698.88zM518.336 630.08l2.88-16.768 32.192 5.888v-19.968h14.912v22.528l6.208 1.088c0.128 4.224 0.384 9.536 0.96 15.872l-7.168-1.28v62.656h5.184v14.656h-53.952v-14.656h4.992v-69.312l-6.208-0.704z m21.12 70.016h13.952v-12.928h-13.952v12.928z m0-26.304h13.952v-12.928h-13.952v12.928z m0-26.368h13.952v-12.544l-13.952-2.112v14.656z"  horiz-adv-x="1024" />

    
    <glyph glyph-name="pdf" unicode="&#58893;" d="M689 831l-541.8 0.1C128.9 831.1 114 816.3 114 798v-828.4c0-18.3 14.8-33.1 33.2-33.1h729.5c18.3 0 33.2 14.8 33.2 33.1V611.8M689 831l-1.1-178c0-21.9 19.9-39.6 44.4-39.6l177.6-1.7L689 831zM347.3 240.2c-56.1-41.2-94.7-99.7-79.5-108.9l-13.3 6.6c-7.7 9.3 9.8 58.9 92.8 102.3zM768.7 286.4c28.7 60.1-207.6 51.1-380.3-27.7 134.4 50.9 383.2 72.9 380.3 27.7zM501.4 606.7c6.5 33.4-10.1 32.2-14.8 32.2l-10.5 0.1c-5.8 0-11-4.6-13.5-13.8-16.4-60.1 13.3-212.7 96.7-283.3 73.6-62.3 201.9-90.8 207-60.7-26.6-12.6-126.7 19.1-194 71.8-79.5 64.2-113.5 222.5-96.4 272 1.7 4.9 5.8 10.7 7.7 12 7.2-3.6 15.8-12.2 17.8-30.3zM500 597.1c-7.3-35.4-10.5-119.2-80-256.8C345.3 192.4 290.8 123.4 254.5 138l13-6.5c28.4-14.3 80.7 32.7 167.6 197.2 66.8 126.6 63.2 191.8 64.9 268.4z"  horiz-adv-x="1024" />

    
    <glyph glyph-name="fasong1" unicode="&#58917;" d="M941.2300547160496 395.80618903703703L554.719762962963 712.0359980246913v-192.8862024691358a572.7037313580246 572.7037313580246 0 0 1-82.85044938271605 6.3561829135802475c-82.97990320987653 0-154.78794113580247-20.90679308641975-213.45641560493823-62.13783703703704-46.991739259259255-33.049562074074075-85.43952592592592-78.96683456790123-114.15238479012345-136.52200612345678-48.3380590617284-96.74084503703703-52.51941767901235-192.20009718518517-52.674762271604926-196.22611120987654l-3.1716187654320986-82.48797866666666 39.62581649382716 71.65269333333332c31.06891851851852 56.170015604938264 117.55702044444443 99.25224928395062 250.15657560493824 124.53458172839505C453.4480339753086 258.66280454320986 524.1427689876543 263.4008146172839 557.308839506173 264.9024790123457v-196.36851041975308z"  horiz-adv-x="1024" />

    
    <glyph glyph-name="zhuanzheng" unicode="&#58953;" d="M784.384 481.4848h-248.6272c-6.5536 0-11.8784-9.0112-11.8784-19.6608 0-10.6496 5.3248-19.6608 11.8784-19.6608h248.6272c6.5536 0 11.8784 9.0112 11.8784 19.6608 0 11.0592-5.3248 19.6608-11.8784 19.6608zM784.384 599.4496h-248.6272c-6.5536 0-11.8784-9.0112-11.8784-19.6608 0-10.6496 5.3248-19.6608 11.8784-19.6608h248.6272c6.5536 0 11.8784 9.0112 11.8784 19.6608s-5.3248 19.6608-11.8784 19.6608zM501.3504 14.9504H170.3936V755.0976h683.2128v-398.9504s31.1296 11.0592 54.0672-21.7088V737.4848c0 43.4176-25.8048 69.2224-69.2224 69.2224H185.5488c-43.4176 0-69.2224-25.8048-69.2224-69.2224v-706.9696c0-43.4176 25.8048-69.2224 69.2224-69.2224h337.5104c-26.2144 29.4912-21.7088 53.6576-21.7088 53.6576zM283.8528 459.3664l-14.7456-3.6864c-4.096-0.8192-6.9632-2.048-8.6016-4.096-2.048-2.4576-2.4576-5.3248-1.6384-8.6016 0.8192-3.2768 2.4576-5.7344 4.9152-6.9632 2.048-1.2288 5.3248-1.2288 10.24-0.4096 4.5056 1.2288 8.6016 2.048 13.1072 3.2768 3.2768 0.8192 6.144 1.6384 9.4208 2.4576v-24.576c0-3.6864 1.2288-6.5536 3.2768-8.192 2.048-1.6384 4.096-2.4576 6.9632-2.4576s5.3248 0.8192 6.9632 2.4576c2.048 1.6384 3.2768 4.5056 3.2768 8.192v31.1296c2.048 0.8192 4.5056 1.6384 6.5536 2.4576 2.8672 1.2288 5.7344 2.048 8.6016 3.2768 4.096 1.6384 6.5536 3.2768 8.192 6.144 1.2288 2.4576 1.2288 5.7344 0 8.6016-1.2288 3.2768-3.2768 5.3248-6.144 6.144-2.4576 0.8192-5.7344 0.4096-9.0112-0.8192l-6.144-2.4576c-0.4096-0.4096-1.2288-0.4096-1.6384-0.8192v22.1184H327.68c6.9632 0 11.0592 3.6864 11.0592 10.24s-4.096 10.6496-11.0592 10.6496h-11.0592V543.744c0 3.6864-0.8192 6.5536-2.8672 8.192-1.6384 1.6384-4.5056 2.8672-7.3728 2.8672s-5.3248-0.8192-7.3728-2.8672l-0.4096-0.4096c0.4096 2.048 1.2288 4.096 1.6384 6.5536h31.9488c3.2768 0 5.7344 0.8192 7.7824 2.8672 0.4096 0.4096 0.4096 0.8192 0.8192 0.8192 0.4096-2.048 0.8192-3.6864 2.048-4.9152 1.6384-2.048 4.5056-3.2768 8.192-3.2768h15.5648l-4.5056-18.432h-20.48c-3.6864 0-6.5536-1.2288-8.192-3.2768-1.6384-2.048-2.4576-4.5056-2.4576-7.3728s0.8192-5.3248 2.4576-7.3728c1.6384-2.048 4.5056-3.2768 8.192-3.2768h15.1552c-0.4096-2.048-0.8192-3.6864-1.2288-5.7344l-2.048-8.6016-0.4096-0.8192c-1.2288-4.5056-1.2288-9.0112 0-12.288v-0.4096c0.4096-0.8192 0.8192-2.048 1.6384-2.8672 2.8672-4.096 8.192-6.5536 15.5648-6.5536h42.1888c-3.6864-3.6864-7.7824-7.3728-11.4688-10.6496-5.3248-4.9152-12.288-10.24-20.48-16.384-2.8672 1.2288-5.7344 2.4576-8.6016 4.096-3.6864 1.6384-7.7824 3.6864-11.4688 5.3248-4.9152 2.048-8.6016 2.8672-11.4688 2.048-2.8672-0.8192-5.3248-3.2768-6.9632-6.5536-2.048-4.5056-0.8192-7.7824 0.8192-9.8304s4.5056-4.096 8.6016-5.7344c9.8304-4.5056 20.0704-9.0112 29.4912-13.9264 11.4688-5.3248 22.9376-11.0592 34.4064-16.384 3.2768-1.6384 6.5536-2.4576 9.0112-2.4576h0.4096c2.048 0 5.7344 0.8192 7.7824 5.7344 1.2288 2.8672 1.6384 6.144 0.8192 8.6016-0.8192 2.8672-3.2768 5.3248-7.3728 7.3728l-14.7456 7.3728c-2.8672 1.2288-6.144 2.8672-9.0112 4.096 5.7344 4.9152 11.0592 9.0112 15.5648 13.1072 5.7344 4.9152 11.4688 10.24 16.7936 15.9744 3.2768 3.2768 5.3248 6.5536 6.144 9.8304 1.2288 3.6864 0.8192 6.9632-0.4096 10.24-1.2288 3.2768-4.096 5.7344-7.3728 7.3728-3.2768 1.6384-7.7824 2.4576-13.1072 2.4576H375.1936c0.8192 2.8672 1.2288 5.3248 2.048 8.192 0.8192 2.4576 1.2288 4.9152 2.048 7.7824h61.8496c3.6864 0 6.5536 0.8192 8.192 2.4576 1.6384 1.6384 2.4576 4.5056 2.4576 8.192 0 3.6864-0.8192 6.144-2.4576 7.7824s-4.5056 2.4576-8.192 2.4576H384.6144c0.8192 2.8672 1.2288 5.7344 2.048 8.192l2.4576 9.8304h42.5984c4.096 0 6.9632 1.2288 8.6016 3.2768 1.2288 2.048 2.048 4.5056 2.048 7.3728s-0.8192 5.3248-2.048 7.3728c-1.6384 2.048-4.5056 3.2768-8.6016 3.2768h-36.864c0 0.8192 0.4096 1.2288 0.4096 2.048l1.6384 6.144c1.2288 4.5056 1.2288 8.192 0.4096 10.6496-0.8192 2.048-2.8672 4.5056-7.7824 5.7344-4.5056 1.2288-7.3728-0.4096-9.0112-1.6384-1.6384-1.6384-3.2768-4.5056-4.9152-9.4208-0.8192-2.8672-1.2288-5.3248-2.048-8.192-0.4096-1.6384-0.8192-3.6864-1.2288-5.3248h-20.48c-3.6864 0-6.5536-1.2288-8.192-3.2768-0.4096-0.4096-0.4096-0.4096-0.4096-0.8192-0.4096 1.6384-0.8192 3.2768-2.048 4.5056-1.6384 2.048-4.5056 3.2768-8.192 3.2768h-26.624v0.4096c0.4096 1.6384 0.8192 2.8672 1.2288 4.5056 1.2288 4.5056 1.2288 7.7824 0.4096 10.24-0.8192 2.048-2.4576 4.9152-7.7824 5.7344-4.9152 0.8192-7.3728-1.2288-9.0112-2.8672-1.6384-2.048-2.8672-4.9152-3.6864-9.4208-0.4096-2.048-0.8192-3.6864-1.2288-5.7344-0.4096-0.8192-0.4096-2.048-0.8192-2.8672H270.336c-4.096 0-6.5536-1.2288-8.192-3.2768-1.6384-1.6384-2.048-4.096-2.048-7.3728 0-2.8672 0.8192-5.7344 2.4576-7.3728 1.6384-2.048 4.5056-2.8672 8.192-2.8672h9.4208c-3.6864-13.1072-7.3728-24.9856-11.4688-35.6352-4.096-9.4208-4.5056-16.384-2.048-21.7088 2.4576-5.7344 9.0112-8.192 19.6608-8.192h10.6496v-29.0816c-4.5056-0.8192-9.0112-2.048-13.1072-3.2768z m2.4576 53.6576c2.8672 7.3728 5.3248 15.1552 7.7824 22.9376 0.8192 2.4576 1.6384 4.9152 2.048 7.3728v-30.3104h-9.8304zM269.5168 195.1744h170.8032c7.3728 0 11.4688 4.096 11.4688 10.6496 0 6.9632-4.096 10.6496-11.4688 10.6496H373.5552V277.504h56.1152c3.2768 0 6.144 0.4096 8.192 2.048 2.4576 1.6384 3.6864 4.5056 3.6864 8.6016 0 4.5056-1.2288 7.7824-4.096 9.4208-2.048 1.2288-4.9152 2.048-7.7824 2.048H373.5552v44.2368h58.9824c7.3728 0 11.4688 3.6864 11.4688 10.24 0 3.2768-0.8192 5.7344-2.8672 7.7824-2.048 2.048-4.9152 2.8672-8.6016 2.8672H282.624c-3.6864 0-6.5536-1.2288-8.6016-3.2768s-2.8672-4.5056-2.8672-7.7824c0-6.5536 4.096-10.24 11.4688-10.24h68.8128v-126.5664h-37.2736v96.256c0 4.096-1.2288 6.9632-3.2768 8.6016-2.048 1.6384-4.5056 2.4576-7.7824 2.4576-2.8672 0-5.7344-0.8192-7.7824-2.4576-2.4576-1.6384-3.6864-4.9152-3.6864-9.0112v-96.256h-22.528c-7.3728 0-11.4688-4.096-11.4688-10.6496 0.4096-6.5536 4.5056-10.6496 11.8784-10.6496zM734.8224 357.7856c-126.1568 0-228.9664-102.8096-228.9664-228.9664 0-126.1568 102.8096-228.9664 228.9664-228.9664s228.9664 102.8096 228.9664 228.9664-102.8096 228.9664-228.9664 228.9664z m0-419.0208c-104.8576 0-190.464 85.1968-190.464 190.464 0 104.8576 85.1968 190.464 190.464 190.464 104.8576 0 190.464-85.1968 190.464-190.464-0.4096-105.2672-85.6064-190.464-190.464-190.464zM815.5136 99.328h-9.0112c-0.8192 1.6384-1.6384 2.8672-2.8672 4.096l-35.2256 50.7904c18.0224 9.4208 30.3104 28.672 30.3104 50.3808 0 31.1296-25.3952 56.9344-56.9344 56.9344-31.1296 0-56.9344-25.3952-56.9344-56.9344 0-21.7088 12.288-40.96 30.3104-50.3808l-36.864-53.248c-0.4096-0.4096-0.4096-0.8192-0.8192-1.6384h-9.4208c-20.8896 0-37.6832-16.7936-37.6832-37.6832v-11.0592c0-20.8896 16.7936-37.6832 37.6832-37.6832H815.104c20.8896 0 37.6832 16.7936 37.6832 37.6832v11.0592c0.4096 20.48-16.384 37.6832-37.2736 37.6832z m-92.5696 8.192l19.2512 27.4432 19.2512-27.4432h-38.5024z m19.2512 121.2416c13.5168 0 24.576-11.0592 24.576-24.576s-11.0592-24.576-24.576-24.576-24.576 11.0592-24.576 24.576 11.0592 24.576 24.576 24.576z m78.6432-178.176c0-2.8672-2.4576-5.3248-5.3248-5.3248h-147.0464c-2.8672 0-5.3248 2.4576-5.3248 5.3248v11.0592c0 2.8672 2.4576 5.3248 5.3248 5.3248h147.0464c2.8672 0 5.3248-2.4576 5.3248-5.3248v-11.0592z"  horiz-adv-x="1024" />

    
    </font>
</defs>
</svg>
